<svg width="754" height="444" viewBox="0 0 754 444" fill="none" xmlns="http://www.w3.org/2000/svg">
<rect x="220" y="213" width="194" height="50" fill="black"/>
<path fill-rule="evenodd" clip-rule="evenodd" d="M63.5569 384.988L73.1329 375.472C73.7205 374.888 74.6703 374.891 75.2542 375.479C75.8381 376.066 75.8352 377.016 75.2475 377.6L68.2403 384.563L556.883 386.102L548.079 378.555L550.031 376.278L562.121 386.64L563.449 387.779L562.121 388.918L550.031 399.28L548.079 397.002L557.295 389.103L68.2308 387.563L75.1941 394.57C75.778 395.158 75.775 396.108 75.1874 396.692C74.5998 397.276 73.6501 397.273 73.0661 396.685L63.5503 387.109C62.9663 386.522 62.9693 385.572 63.5569 384.988Z" fill="black"/>
<path fill-rule="evenodd" clip-rule="evenodd" d="M321.191 7.24225L319.595 15.769L316.646 15.217L318.998 2.65104L319.32 0.930908L320.971 1.51215L333.029 5.7583L332.033 8.58799L323.752 5.67197L583.342 384.216L585.153 374.505C585.305 373.69 586.088 373.153 586.902 373.305C587.717 373.457 588.254 374.24 588.102 375.055L585.628 388.326C585.476 389.14 584.693 389.677 583.879 389.526L570.607 387.052C569.793 386.9 569.256 386.117 569.407 385.302C569.559 384.488 570.342 383.951 571.157 384.103L580.868 385.913L321.191 7.24225Z" fill="black"/>
<path fill-rule="evenodd" clip-rule="evenodd" d="M46.5447 383.334L44.9488 374.807L42 375.359L44.352 387.925L44.6739 389.645L46.3246 389.064L58.383 384.818L57.3866 381.988L49.1054 384.904L308.696 6.35956L310.507 16.071C310.659 16.8854 311.442 17.4225 312.256 17.2707C313.071 17.1189 313.608 16.3356 313.456 15.5212L310.982 2.24982C310.83 1.43542 310.047 0.898285 309.233 1.05011L295.961 3.52402C295.147 3.67581 294.61 4.45908 294.761 5.27347C294.913 6.08786 295.697 6.625 296.511 6.47321L306.222 4.6629L46.5447 383.334Z" fill="black"/>
<path d="M6.15 126.61V133.93H16.68V136.51H6.15V145H3.15V124H17.97V126.61H6.15ZM27.0063 128.95C29.2063 128.95 30.8863 129.49 32.0463 130.57C33.2263 131.65 33.8163 133.26 33.8163 135.4V145H31.0863V142.9C30.6063 143.64 29.9163 144.21 29.0163 144.61C28.1363 144.99 27.0863 145.18 25.8663 145.18C24.0863 145.18 22.6563 144.75 21.5763 143.89C20.5163 143.03 19.9863 141.9 19.9863 140.5C19.9863 139.1 20.4963 137.98 21.5163 137.14C22.5363 136.28 24.1563 135.85 26.3763 135.85H30.9363V135.28C30.9363 134.04 30.5763 133.09 29.8563 132.43C29.1363 131.77 28.0763 131.44 26.6763 131.44C25.7363 131.44 24.8163 131.6 23.9163 131.92C23.0163 132.22 22.2563 132.63 21.6363 133.15L20.4363 130.99C21.2563 130.33 22.2363 129.83 23.3763 129.49C24.5163 129.13 25.7263 128.95 27.0063 128.95ZM26.3463 142.96C27.4463 142.96 28.3963 142.72 29.1963 142.24C29.9963 141.74 30.5763 141.04 30.9363 140.14V137.92H26.4963C24.0563 137.92 22.8363 138.74 22.8363 140.38C22.8363 141.18 23.1463 141.81 23.7663 142.27C24.3863 142.73 25.2463 142.96 26.3463 142.96ZM41.906 131.77C42.406 130.85 43.146 130.15 44.126 129.67C45.106 129.19 46.296 128.95 47.696 128.95V131.74C47.536 131.72 47.316 131.71 47.036 131.71C45.476 131.71 44.246 132.18 43.346 133.12C42.466 134.04 42.026 135.36 42.026 137.08V145H39.146V129.1H41.906V131.77ZM71.1356 128.95C73.1356 128.95 74.7156 129.53 75.8756 130.69C77.0556 131.85 77.6456 133.57 77.6456 135.85V145H74.7656V136.18C74.7656 134.64 74.4056 133.48 73.6856 132.7C72.9856 131.92 71.9756 131.53 70.6556 131.53C69.1956 131.53 68.0356 131.99 67.1756 132.91C66.3156 133.81 65.8856 135.11 65.8856 136.81V145H63.0056V136.18C63.0056 134.64 62.6456 133.48 61.9256 132.7C61.2256 131.92 60.2156 131.53 58.8956 131.53C57.4356 131.53 56.2756 131.99 55.4156 132.91C54.5556 133.81 54.1256 135.11 54.1256 136.81V145H51.2456V129.1H54.0056V131.47C54.5856 130.65 55.3456 130.03 56.2856 129.61C57.2256 129.17 58.2956 128.95 59.4956 128.95C60.7356 128.95 61.8356 129.2 62.7956 129.7C63.7556 130.2 64.4956 130.93 65.0156 131.89C65.6156 130.97 66.4456 130.25 67.5056 129.73C68.5856 129.21 69.7956 128.95 71.1356 128.95ZM97.4027 137.14C97.4027 137.36 97.3827 137.65 97.3427 138.01H84.4427C84.6227 139.41 85.2327 140.54 86.2727 141.4C87.3327 142.24 88.6427 142.66 90.2027 142.66C92.1027 142.66 93.6327 142.02 94.7927 140.74L96.3827 142.6C95.6627 143.44 94.7627 144.08 93.6827 144.52C92.6227 144.96 91.4327 145.18 90.1127 145.18C88.4327 145.18 86.9427 144.84 85.6427 144.16C84.3427 143.46 83.3327 142.49 82.6127 141.25C81.9127 140.01 81.5627 138.61 81.5627 137.05C81.5627 135.51 81.9027 134.12 82.5827 132.88C83.2827 131.64 84.2327 130.68 85.4327 130C86.6527 129.3 88.0227 128.95 89.5427 128.95C91.0627 128.95 92.4127 129.3 93.5927 130C94.7927 130.68 95.7227 131.64 96.3827 132.88C97.0627 134.12 97.4027 135.54 97.4027 137.14ZM89.5427 131.38C88.1627 131.38 87.0027 131.8 86.0627 132.64C85.1427 133.48 84.6027 134.58 84.4427 135.94H94.6427C94.4827 134.6 93.9327 133.51 92.9927 132.67C92.0727 131.81 90.9227 131.38 89.5427 131.38ZM104.162 131.77C104.662 130.85 105.402 130.15 106.382 129.67C107.362 129.19 108.552 128.95 109.952 128.95V131.74C109.792 131.72 109.572 131.71 109.292 131.71C107.732 131.71 106.502 132.18 105.602 133.12C104.722 134.04 104.282 135.36 104.282 137.08V145H101.402V129.1H104.162V131.77ZM118.179 145.18C116.879 145.18 115.629 145.01 114.429 144.67C113.229 144.31 112.289 143.86 111.609 143.32L112.809 141.04C113.509 141.54 114.359 141.94 115.359 142.24C116.359 142.54 117.369 142.69 118.389 142.69C120.909 142.69 122.169 141.97 122.169 140.53C122.169 140.05 121.999 139.67 121.659 139.39C121.319 139.11 120.889 138.91 120.369 138.79C119.869 138.65 119.149 138.5 118.209 138.34C116.929 138.14 115.879 137.91 115.059 137.65C114.259 137.39 113.569 136.95 112.989 136.33C112.409 135.71 112.119 134.84 112.119 133.72C112.119 132.28 112.719 131.13 113.919 130.27C115.119 129.39 116.729 128.95 118.749 128.95C119.809 128.95 120.869 129.08 121.929 129.34C122.989 129.6 123.859 129.95 124.539 130.39L123.309 132.67C122.009 131.83 120.479 131.41 118.719 131.41C117.499 131.41 116.569 131.61 115.929 132.01C115.289 132.41 114.969 132.94 114.969 133.6C114.969 134.12 115.149 134.53 115.509 134.83C115.869 135.13 116.309 135.35 116.829 135.49C117.369 135.63 118.119 135.79 119.079 135.97C120.359 136.19 121.389 136.43 122.169 136.69C122.969 136.93 123.649 137.35 124.209 137.95C124.769 138.55 125.049 139.39 125.049 140.47C125.049 141.91 124.429 143.06 123.189 143.92C121.969 144.76 120.299 145.18 118.179 145.18Z" fill="#069801"/>
<path d="M511.62 150L511.59 134.7L504 147.45H502.62L495.03 134.79V150H492.15V129H494.61L503.37 143.76L512.01 129H514.47L514.5 150H511.62ZM526.172 133.95C528.372 133.95 530.052 134.49 531.212 135.57C532.392 136.65 532.982 138.26 532.982 140.4V150H530.252V147.9C529.772 148.64 529.082 149.21 528.182 149.61C527.302 149.99 526.252 150.18 525.032 150.18C523.252 150.18 521.822 149.75 520.742 148.89C519.682 148.03 519.152 146.9 519.152 145.5C519.152 144.1 519.662 142.98 520.682 142.14C521.702 141.28 523.322 140.85 525.542 140.85H530.102V140.28C530.102 139.04 529.742 138.09 529.022 137.43C528.302 136.77 527.242 136.44 525.842 136.44C524.902 136.44 523.982 136.6 523.082 136.92C522.182 137.22 521.422 137.63 520.802 138.15L519.602 135.99C520.422 135.33 521.402 134.83 522.542 134.49C523.682 134.13 524.892 133.95 526.172 133.95ZM525.512 147.96C526.612 147.96 527.562 147.72 528.362 147.24C529.162 146.74 529.742 146.04 530.102 145.14V142.92H525.662C523.222 142.92 522.002 143.74 522.002 145.38C522.002 146.18 522.312 146.81 522.932 147.27C523.552 147.73 524.412 147.96 525.512 147.96ZM546.802 133.95C548.822 133.95 550.422 134.54 551.602 135.72C552.802 136.88 553.402 138.59 553.402 140.85V150H550.522V141.18C550.522 139.64 550.152 138.48 549.412 137.7C548.672 136.92 547.612 136.53 546.232 136.53C544.672 136.53 543.442 136.99 542.542 137.91C541.642 138.81 541.192 140.11 541.192 141.81V150H538.312V134.1H541.072V136.5C541.652 135.68 542.432 135.05 543.412 134.61C544.412 134.17 545.542 133.95 546.802 133.95ZM573.552 134.1V150H570.822V147.6C570.242 148.42 569.472 149.06 568.512 149.52C567.572 149.96 566.542 150.18 565.422 150.18C563.302 150.18 561.632 149.6 560.412 148.44C559.192 147.26 558.582 145.53 558.582 143.25V134.1H561.462V142.92C561.462 144.46 561.832 145.63 562.572 146.43C563.312 147.21 564.372 147.6 565.752 147.6C567.272 147.6 568.472 147.14 569.352 146.22C570.232 145.3 570.672 144 570.672 142.32V134.1H573.552ZM584.855 129.93C583.135 129.93 582.275 130.86 582.275 132.72V134.1H586.895V136.47H582.335V150H579.455V136.47H576.755V134.1H579.455V132.69C579.455 131.11 579.915 129.86 580.835 128.94C581.755 128.02 583.045 127.56 584.705 127.56C585.345 127.56 585.945 127.64 586.505 127.8C587.065 127.96 587.545 128.19 587.945 128.49L587.075 130.68C586.415 130.18 585.675 129.93 584.855 129.93ZM595.108 133.95C597.308 133.95 598.988 134.49 600.148 135.57C601.328 136.65 601.918 138.26 601.918 140.4V150H599.188V147.9C598.708 148.64 598.018 149.21 597.118 149.61C596.238 149.99 595.188 150.18 593.968 150.18C592.188 150.18 590.758 149.75 589.678 148.89C588.618 148.03 588.088 146.9 588.088 145.5C588.088 144.1 588.598 142.98 589.618 142.14C590.638 141.28 592.258 140.85 594.478 140.85H599.038V140.28C599.038 139.04 598.678 138.09 597.958 137.43C597.238 136.77 596.178 136.44 594.778 136.44C593.838 136.44 592.918 136.6 592.018 136.92C591.118 137.22 590.358 137.63 589.738 138.15L588.538 135.99C589.358 135.33 590.338 134.83 591.478 134.49C592.618 134.13 593.828 133.95 595.108 133.95ZM594.448 147.96C595.548 147.96 596.498 147.72 597.298 147.24C598.098 146.74 598.678 146.04 599.038 145.14V142.92H594.598C592.158 142.92 590.938 143.74 590.938 145.38C590.938 146.18 591.248 146.81 591.868 147.27C592.488 147.73 593.348 147.96 594.448 147.96ZM614.265 150.18C612.645 150.18 611.195 149.83 609.915 149.13C608.655 148.43 607.665 147.47 606.945 146.25C606.225 145.01 605.865 143.61 605.865 142.05C605.865 140.49 606.225 139.1 606.945 137.88C607.665 136.64 608.655 135.68 609.915 135C611.195 134.3 612.645 133.95 614.265 133.95C615.705 133.95 616.985 134.24 618.105 134.82C619.245 135.4 620.125 136.24 620.745 137.34L618.555 138.75C618.055 137.99 617.435 137.42 616.695 137.04C615.955 136.66 615.135 136.47 614.235 136.47C613.195 136.47 612.255 136.7 611.415 137.16C610.595 137.62 609.945 138.28 609.465 139.14C609.005 139.98 608.775 140.95 608.775 142.05C608.775 143.17 609.005 144.16 609.465 145.02C609.945 145.86 610.595 146.51 611.415 146.97C612.255 147.43 613.195 147.66 614.235 147.66C615.135 147.66 615.955 147.47 616.695 147.09C617.435 146.71 618.055 146.14 618.555 145.38L620.745 146.76C620.125 147.86 619.245 148.71 618.105 149.31C616.985 149.89 615.705 150.18 614.265 150.18ZM633.619 149.07C633.199 149.43 632.679 149.71 632.059 149.91C631.439 150.09 630.799 150.18 630.139 150.18C628.539 150.18 627.299 149.75 626.419 148.89C625.539 148.03 625.099 146.8 625.099 145.2V136.47H622.399V134.1H625.099V130.62H627.979V134.1H632.539V136.47H627.979V145.08C627.979 145.94 628.189 146.6 628.609 147.06C629.049 147.52 629.669 147.75 630.469 147.75C631.349 147.75 632.099 147.5 632.719 147L633.619 149.07ZM651.921 134.1V150H649.191V147.6C648.611 148.42 647.841 149.06 646.881 149.52C645.941 149.96 644.911 150.18 643.791 150.18C641.671 150.18 640.001 149.6 638.781 148.44C637.561 147.26 636.951 145.53 636.951 143.25V134.1H639.831V142.92C639.831 144.46 640.201 145.63 640.941 146.43C641.681 147.21 642.741 147.6 644.121 147.6C645.641 147.6 646.841 147.14 647.721 146.22C648.601 145.3 649.041 144 649.041 142.32V134.1H651.921ZM660.164 136.77C660.664 135.85 661.404 135.15 662.384 134.67C663.364 134.19 664.554 133.95 665.954 133.95V136.74C665.794 136.72 665.574 136.71 665.294 136.71C663.734 136.71 662.504 137.18 661.604 138.12C660.724 139.04 660.284 140.36 660.284 142.08V150H657.404V134.1H660.164V136.77ZM683.727 142.14C683.727 142.36 683.707 142.65 683.667 143.01H670.767C670.947 144.41 671.557 145.54 672.597 146.4C673.657 147.24 674.967 147.66 676.527 147.66C678.427 147.66 679.957 147.02 681.117 145.74L682.707 147.6C681.987 148.44 681.087 149.08 680.007 149.52C678.947 149.96 677.757 150.18 676.437 150.18C674.757 150.18 673.267 149.84 671.967 149.16C670.667 148.46 669.657 147.49 668.937 146.25C668.237 145.01 667.887 143.61 667.887 142.05C667.887 140.51 668.227 139.12 668.907 137.88C669.607 136.64 670.557 135.68 671.757 135C672.977 134.3 674.347 133.95 675.867 133.95C677.387 133.95 678.737 134.3 679.917 135C681.117 135.68 682.047 136.64 682.707 137.88C683.387 139.12 683.727 140.54 683.727 142.14ZM675.867 136.38C674.487 136.38 673.327 136.8 672.387 137.64C671.467 138.48 670.927 139.58 670.767 140.94H680.967C680.807 139.6 680.257 138.51 679.317 137.67C678.397 136.81 677.247 136.38 675.867 136.38ZM690.486 136.77C690.986 135.85 691.726 135.15 692.706 134.67C693.686 134.19 694.876 133.95 696.276 133.95V136.74C696.116 136.72 695.896 136.71 695.616 136.71C694.056 136.71 692.826 137.18 691.926 138.12C691.046 139.04 690.606 140.36 690.606 142.08V150H687.726V134.1H690.486V136.77ZM704.503 150.18C703.203 150.18 701.953 150.01 700.753 149.67C699.553 149.31 698.613 148.86 697.933 148.32L699.133 146.04C699.833 146.54 700.683 146.94 701.683 147.24C702.683 147.54 703.693 147.69 704.713 147.69C707.233 147.69 708.493 146.97 708.493 145.53C708.493 145.05 708.323 144.67 707.983 144.39C707.643 144.11 707.213 143.91 706.693 143.79C706.193 143.65 705.473 143.5 704.533 143.34C703.253 143.14 702.203 142.91 701.383 142.65C700.583 142.39 699.893 141.95 699.313 141.33C698.733 140.71 698.443 139.84 698.443 138.72C698.443 137.28 699.043 136.13 700.243 135.27C701.443 134.39 703.053 133.95 705.073 133.95C706.133 133.95 707.193 134.08 708.253 134.34C709.313 134.6 710.183 134.95 710.863 135.39L709.633 137.67C708.333 136.83 706.803 136.41 705.043 136.41C703.823 136.41 702.893 136.61 702.253 137.01C701.613 137.41 701.293 137.94 701.293 138.6C701.293 139.12 701.473 139.53 701.833 139.83C702.193 140.13 702.633 140.35 703.153 140.49C703.693 140.63 704.443 140.79 705.403 140.97C706.683 141.19 707.713 141.43 708.493 141.69C709.293 141.93 709.973 142.35 710.533 142.95C711.093 143.55 711.373 144.39 711.373 145.47C711.373 146.91 710.753 148.06 709.513 148.92C708.293 149.76 706.623 150.18 704.503 150.18Z" fill="#069801"/>
<path d="M254.53 430.75H243.37L241.06 436H237.97L247.48 415H250.45L259.99 436H256.84L254.53 430.75ZM253.48 428.35L248.95 418.06L244.42 428.35H253.48ZM277.766 420.1V433.84C277.766 436.62 277.076 438.67 275.696 439.99C274.316 441.33 272.256 442 269.516 442C268.016 442 266.586 441.79 265.226 441.37C263.866 440.97 262.766 440.39 261.926 439.63L263.306 437.41C264.046 438.05 264.956 438.55 266.036 438.91C267.136 439.29 268.266 439.48 269.426 439.48C271.286 439.48 272.656 439.04 273.536 438.16C274.436 437.28 274.886 435.94 274.886 434.14V432.88C274.206 433.7 273.366 434.32 272.366 434.74C271.386 435.14 270.316 435.34 269.156 435.34C267.636 435.34 266.256 435.02 265.016 434.38C263.796 433.72 262.836 432.81 262.136 431.65C261.436 430.47 261.086 429.13 261.086 427.63C261.086 426.13 261.436 424.8 262.136 423.64C262.836 422.46 263.796 421.55 265.016 420.91C266.256 420.27 267.636 419.95 269.156 419.95C270.356 419.95 271.466 420.17 272.486 420.61C273.526 421.05 274.376 421.7 275.036 422.56V420.1H277.766ZM269.486 432.82C270.526 432.82 271.456 432.6 272.276 432.16C273.116 431.72 273.766 431.11 274.226 430.33C274.706 429.53 274.946 428.63 274.946 427.63C274.946 426.09 274.436 424.85 273.416 423.91C272.396 422.95 271.086 422.47 269.486 422.47C267.866 422.47 266.546 422.95 265.526 423.91C264.506 424.85 263.996 426.09 263.996 427.63C263.996 428.63 264.226 429.53 264.686 430.33C265.166 431.11 265.816 431.72 266.636 432.16C267.476 432.6 268.426 432.82 269.486 432.82ZM298.479 420.1V433.84C298.479 436.62 297.789 438.67 296.409 439.99C295.029 441.33 292.969 442 290.229 442C288.729 442 287.299 441.79 285.939 441.37C284.579 440.97 283.479 440.39 282.639 439.63L284.019 437.41C284.759 438.05 285.669 438.55 286.749 438.91C287.849 439.29 288.979 439.48 290.139 439.48C291.999 439.48 293.369 439.04 294.249 438.16C295.149 437.28 295.599 435.94 295.599 434.14V432.88C294.919 433.7 294.079 434.32 293.079 434.74C292.099 435.14 291.029 435.34 289.869 435.34C288.349 435.34 286.969 435.02 285.729 434.38C284.509 433.72 283.549 432.81 282.849 431.65C282.149 430.47 281.799 429.13 281.799 427.63C281.799 426.13 282.149 424.8 282.849 423.64C283.549 422.46 284.509 421.55 285.729 420.91C286.969 420.27 288.349 419.95 289.869 419.95C291.069 419.95 292.179 420.17 293.199 420.61C294.239 421.05 295.089 421.7 295.749 422.56V420.1H298.479ZM290.199 432.82C291.239 432.82 292.169 432.6 292.989 432.16C293.829 431.72 294.479 431.11 294.939 430.33C295.419 429.53 295.659 428.63 295.659 427.63C295.659 426.09 295.149 424.85 294.129 423.91C293.109 422.95 291.799 422.47 290.199 422.47C288.579 422.47 287.259 422.95 286.239 423.91C285.219 424.85 284.709 426.09 284.709 427.63C284.709 428.63 284.939 429.53 285.399 430.33C285.879 431.11 286.529 431.72 287.349 432.16C288.189 432.6 289.139 432.82 290.199 432.82ZM306.742 422.77C307.242 421.85 307.982 421.15 308.962 420.67C309.942 420.19 311.132 419.95 312.532 419.95V422.74C312.372 422.72 312.152 422.71 311.872 422.71C310.312 422.71 309.082 423.18 308.182 424.12C307.302 425.04 306.862 426.36 306.862 428.08V436H303.982V420.1H306.742V422.77ZM330.305 428.14C330.305 428.36 330.285 428.65 330.245 429.01H317.345C317.525 430.41 318.135 431.54 319.175 432.4C320.235 433.24 321.545 433.66 323.105 433.66C325.005 433.66 326.535 433.02 327.695 431.74L329.285 433.6C328.565 434.44 327.665 435.08 326.585 435.52C325.525 435.96 324.335 436.18 323.015 436.18C321.335 436.18 319.845 435.84 318.545 435.16C317.245 434.46 316.235 433.49 315.515 432.25C314.815 431.01 314.465 429.61 314.465 428.05C314.465 426.51 314.805 425.12 315.485 423.88C316.185 422.64 317.135 421.68 318.335 421C319.555 420.3 320.925 419.95 322.445 419.95C323.965 419.95 325.315 420.3 326.495 421C327.695 421.68 328.625 422.64 329.285 423.88C329.965 425.12 330.305 426.54 330.305 428.14ZM322.445 422.38C321.065 422.38 319.905 422.8 318.965 423.64C318.045 424.48 317.505 425.58 317.345 426.94H327.545C327.385 425.6 326.835 424.51 325.895 423.67C324.975 422.81 323.825 422.38 322.445 422.38ZM349.514 420.1V433.84C349.514 436.62 348.824 438.67 347.444 439.99C346.064 441.33 344.004 442 341.264 442C339.764 442 338.334 441.79 336.974 441.37C335.614 440.97 334.514 440.39 333.674 439.63L335.054 437.41C335.794 438.05 336.704 438.55 337.784 438.91C338.884 439.29 340.014 439.48 341.174 439.48C343.034 439.48 344.404 439.04 345.284 438.16C346.184 437.28 346.634 435.94 346.634 434.14V432.88C345.954 433.7 345.114 434.32 344.114 434.74C343.134 435.14 342.064 435.34 340.904 435.34C339.384 435.34 338.004 435.02 336.764 434.38C335.544 433.72 334.584 432.81 333.884 431.65C333.184 430.47 332.834 429.13 332.834 427.63C332.834 426.13 333.184 424.8 333.884 423.64C334.584 422.46 335.544 421.55 336.764 420.91C338.004 420.27 339.384 419.95 340.904 419.95C342.104 419.95 343.214 420.17 344.234 420.61C345.274 421.05 346.124 421.7 346.784 422.56V420.1H349.514ZM341.234 432.82C342.274 432.82 343.204 432.6 344.024 432.16C344.864 431.72 345.514 431.11 345.974 430.33C346.454 429.53 346.694 428.63 346.694 427.63C346.694 426.09 346.184 424.85 345.164 423.91C344.144 422.95 342.834 422.47 341.234 422.47C339.614 422.47 338.294 422.95 337.274 423.91C336.254 424.85 335.744 426.09 335.744 427.63C335.744 428.63 335.974 429.53 336.434 430.33C336.914 431.11 337.564 431.72 338.384 432.16C339.224 432.6 340.174 432.82 341.234 432.82ZM360.807 419.95C363.007 419.95 364.687 420.49 365.847 421.57C367.027 422.65 367.617 424.26 367.617 426.4V436H364.887V433.9C364.407 434.64 363.717 435.21 362.817 435.61C361.937 435.99 360.887 436.18 359.667 436.18C357.887 436.18 356.457 435.75 355.377 434.89C354.317 434.03 353.787 432.9 353.787 431.5C353.787 430.1 354.297 428.98 355.317 428.14C356.337 427.28 357.957 426.85 360.177 426.85H364.737V426.28C364.737 425.04 364.377 424.09 363.657 423.43C362.937 422.77 361.877 422.44 360.477 422.44C359.537 422.44 358.617 422.6 357.717 422.92C356.817 423.22 356.057 423.63 355.437 424.15L354.237 421.99C355.057 421.33 356.037 420.83 357.177 420.49C358.317 420.13 359.527 419.95 360.807 419.95ZM360.147 433.96C361.247 433.96 362.197 433.72 362.997 433.24C363.797 432.74 364.377 432.04 364.737 431.14V428.92H360.297C357.857 428.92 356.637 429.74 356.637 431.38C356.637 432.18 356.947 432.81 357.567 433.27C358.187 433.73 359.047 433.96 360.147 433.96ZM381.887 435.07C381.467 435.43 380.947 435.71 380.327 435.91C379.707 436.09 379.067 436.18 378.407 436.18C376.807 436.18 375.567 435.75 374.687 434.89C373.807 434.03 373.367 432.8 373.367 431.2V422.47H370.667V420.1H373.367V416.62H376.247V420.1H380.807V422.47H376.247V431.08C376.247 431.94 376.457 432.6 376.877 433.06C377.317 433.52 377.937 433.75 378.737 433.75C379.617 433.75 380.367 433.5 380.987 433L381.887 435.07ZM391.651 436.18C390.071 436.18 388.651 435.83 387.391 435.13C386.131 434.43 385.141 433.47 384.421 432.25C383.721 431.01 383.371 429.61 383.371 428.05C383.371 426.49 383.721 425.1 384.421 423.88C385.141 422.64 386.131 421.68 387.391 421C388.651 420.3 390.071 419.95 391.651 419.95C393.231 419.95 394.641 420.3 395.881 421C397.141 421.68 398.121 422.64 398.821 423.88C399.541 425.1 399.901 426.49 399.901 428.05C399.901 429.61 399.541 431.01 398.821 432.25C398.121 433.47 397.141 434.43 395.881 435.13C394.641 435.83 393.231 436.18 391.651 436.18ZM391.651 433.66C392.671 433.66 393.581 433.43 394.381 432.97C395.201 432.49 395.841 431.83 396.301 430.99C396.761 430.13 396.991 429.15 396.991 428.05C396.991 426.95 396.761 425.98 396.301 425.14C395.841 424.28 395.201 423.62 394.381 423.16C393.581 422.7 392.671 422.47 391.651 422.47C390.631 422.47 389.711 422.7 388.891 423.16C388.091 423.62 387.451 424.28 386.971 425.14C386.511 425.98 386.281 426.95 386.281 428.05C386.281 429.15 386.511 430.13 386.971 430.99C387.451 431.83 388.091 432.49 388.891 432.97C389.711 433.43 390.631 433.66 391.651 433.66ZM406.644 422.77C407.144 421.85 407.884 421.15 408.864 420.67C409.844 420.19 411.034 419.95 412.434 419.95V422.74C412.274 422.72 412.054 422.71 411.774 422.71C410.214 422.71 408.984 423.18 408.084 424.12C407.204 425.04 406.764 426.36 406.764 428.08V436H403.884V420.1H406.644V422.77ZM420.661 436.18C419.361 436.18 418.111 436.01 416.911 435.67C415.711 435.31 414.771 434.86 414.091 434.32L415.291 432.04C415.991 432.54 416.841 432.94 417.841 433.24C418.841 433.54 419.851 433.69 420.871 433.69C423.391 433.69 424.651 432.97 424.651 431.53C424.651 431.05 424.481 430.67 424.141 430.39C423.801 430.11 423.371 429.91 422.851 429.79C422.351 429.65 421.631 429.5 420.691 429.34C419.411 429.14 418.361 428.91 417.541 428.65C416.741 428.39 416.051 427.95 415.471 427.33C414.891 426.71 414.601 425.84 414.601 424.72C414.601 423.28 415.201 422.13 416.401 421.27C417.601 420.39 419.211 419.95 421.231 419.95C422.291 419.95 423.351 420.08 424.411 420.34C425.471 420.6 426.341 420.95 427.021 421.39L425.791 423.67C424.491 422.83 422.961 422.41 421.201 422.41C419.981 422.41 419.051 422.61 418.411 423.01C417.771 423.41 417.451 423.94 417.451 424.6C417.451 425.12 417.631 425.53 417.991 425.83C418.351 426.13 418.791 426.35 419.311 426.49C419.851 426.63 420.601 426.79 421.561 426.97C422.841 427.19 423.871 427.43 424.651 427.69C425.451 427.93 426.131 428.35 426.691 428.95C427.251 429.55 427.531 430.39 427.531 431.47C427.531 432.91 426.911 434.06 425.671 434.92C424.451 435.76 422.781 436.18 420.661 436.18Z" fill="#069801"/>
<path d="M257.28 237.11C258.5 237.45 259.46 238.07 260.16 238.97C260.86 239.85 261.21 240.97 261.21 242.33C261.21 244.15 260.52 245.55 259.14 246.53C257.78 247.51 255.79 248 253.17 248H243.15V227H252.57C254.97 227 256.82 227.48 258.12 228.44C259.44 229.4 260.1 230.73 260.1 232.43C260.1 233.53 259.84 234.48 259.32 235.28C258.82 236.08 258.14 236.69 257.28 237.11ZM246.15 229.43V236.15H252.3C253.84 236.15 255.02 235.87 255.84 235.31C256.68 234.73 257.1 233.89 257.1 232.79C257.1 231.69 256.68 230.86 255.84 230.3C255.02 229.72 253.84 229.43 252.3 229.43H246.15ZM253.05 245.57C254.75 245.57 256.03 245.29 256.89 244.73C257.75 244.17 258.18 243.29 258.18 242.09C258.18 239.75 256.47 238.58 253.05 238.58H246.15V245.57H253.05ZM271.225 231.95C273.425 231.95 275.105 232.49 276.265 233.57C277.445 234.65 278.035 236.26 278.035 238.4V248H275.305V245.9C274.825 246.64 274.135 247.21 273.235 247.61C272.355 247.99 271.305 248.18 270.085 248.18C268.305 248.18 266.875 247.75 265.795 246.89C264.735 246.03 264.205 244.9 264.205 243.5C264.205 242.1 264.715 240.98 265.735 240.14C266.755 239.28 268.375 238.85 270.595 238.85H275.155V238.28C275.155 237.04 274.795 236.09 274.075 235.43C273.355 234.77 272.295 234.44 270.895 234.44C269.955 234.44 269.035 234.6 268.135 234.92C267.235 235.22 266.475 235.63 265.855 236.15L264.655 233.99C265.475 233.33 266.455 232.83 267.595 232.49C268.735 232.13 269.945 231.95 271.225 231.95ZM270.565 245.96C271.665 245.96 272.615 245.72 273.415 245.24C274.215 244.74 274.795 244.04 275.155 243.14V240.92H270.715C268.275 240.92 267.055 241.74 267.055 243.38C267.055 244.18 267.365 244.81 267.985 245.27C268.605 245.73 269.465 245.96 270.565 245.96ZM291.855 231.95C293.875 231.95 295.475 232.54 296.655 233.72C297.855 234.88 298.455 236.59 298.455 238.85V248H295.575V239.18C295.575 237.64 295.205 236.48 294.465 235.7C293.725 234.92 292.665 234.53 291.285 234.53C289.725 234.53 288.495 234.99 287.595 235.91C286.695 236.81 286.245 238.11 286.245 239.81V248H283.365V225.74H286.245V234.35C286.845 233.59 287.625 233 288.585 232.58C289.565 232.16 290.655 231.95 291.855 231.95ZM306.545 234.77C307.045 233.85 307.785 233.15 308.765 232.67C309.745 232.19 310.935 231.95 312.335 231.95V234.74C312.175 234.72 311.955 234.71 311.675 234.71C310.115 234.71 308.885 235.18 307.985 236.12C307.105 237.04 306.665 238.36 306.665 240.08V248H303.785V232.1H306.545V234.77ZM321.645 231.95C323.845 231.95 325.525 232.49 326.685 233.57C327.865 234.65 328.455 236.26 328.455 238.4V248H325.725V245.9C325.245 246.64 324.555 247.21 323.655 247.61C322.775 247.99 321.725 248.18 320.505 248.18C318.725 248.18 317.295 247.75 316.215 246.89C315.155 246.03 314.625 244.9 314.625 243.5C314.625 242.1 315.135 240.98 316.155 240.14C317.175 239.28 318.795 238.85 321.015 238.85H325.575V238.28C325.575 237.04 325.215 236.09 324.495 235.43C323.775 234.77 322.715 234.44 321.315 234.44C320.375 234.44 319.455 234.6 318.555 234.92C317.655 235.22 316.895 235.63 316.275 236.15L315.075 233.99C315.895 233.33 316.875 232.83 318.015 232.49C319.155 232.13 320.365 231.95 321.645 231.95ZM320.985 245.96C322.085 245.96 323.035 245.72 323.835 245.24C324.635 244.74 325.215 244.04 325.575 243.14V240.92H321.135C318.695 240.92 317.475 241.74 317.475 243.38C317.475 244.18 317.785 244.81 318.405 245.27C319.025 245.73 319.885 245.96 320.985 245.96ZM342.275 231.95C344.295 231.95 345.895 232.54 347.075 233.72C348.275 234.88 348.875 236.59 348.875 238.85V248H345.995V239.18C345.995 237.64 345.625 236.48 344.885 235.7C344.145 234.92 343.085 234.53 341.705 234.53C340.145 234.53 338.915 234.99 338.015 235.91C337.115 236.81 336.665 238.11 336.665 239.81V248H333.785V232.1H336.545V234.5C337.125 233.68 337.905 233.05 338.885 232.61C339.885 232.17 341.015 231.95 342.275 231.95ZM369.293 225.74V248H366.533V245.48C365.893 246.36 365.083 247.03 364.103 247.49C363.123 247.95 362.043 248.18 360.863 248.18C359.323 248.18 357.943 247.84 356.723 247.16C355.503 246.48 354.543 245.53 353.843 244.31C353.163 243.07 352.823 241.65 352.823 240.05C352.823 238.45 353.163 237.04 353.843 235.82C354.543 234.6 355.503 233.65 356.723 232.97C357.943 232.29 359.323 231.95 360.863 231.95C362.003 231.95 363.053 232.17 364.013 232.61C364.973 233.03 365.773 233.66 366.413 234.5V225.74H369.293ZM361.103 245.66C362.103 245.66 363.013 245.43 363.833 244.97C364.653 244.49 365.293 243.83 365.753 242.99C366.213 242.13 366.443 241.15 366.443 240.05C366.443 238.95 366.213 237.98 365.753 237.14C365.293 236.28 364.653 235.62 363.833 235.16C363.013 234.7 362.103 234.47 361.103 234.47C360.083 234.47 359.163 234.7 358.343 235.16C357.543 235.62 356.903 236.28 356.423 237.14C355.963 237.98 355.733 238.95 355.733 240.05C355.733 241.15 355.963 242.13 356.423 242.99C356.903 243.83 357.543 244.49 358.343 244.97C359.163 245.43 360.083 245.66 361.103 245.66ZM380.532 231.95C382.732 231.95 384.412 232.49 385.572 233.57C386.752 234.65 387.342 236.26 387.342 238.4V248H384.612V245.9C384.132 246.64 383.442 247.21 382.542 247.61C381.662 247.99 380.612 248.18 379.392 248.18C377.612 248.18 376.182 247.75 375.102 246.89C374.042 246.03 373.512 244.9 373.512 243.5C373.512 242.1 374.022 240.98 375.042 240.14C376.062 239.28 377.682 238.85 379.902 238.85H384.462V238.28C384.462 237.04 384.102 236.09 383.382 235.43C382.662 234.77 381.602 234.44 380.202 234.44C379.262 234.44 378.342 234.6 377.442 234.92C376.542 235.22 375.782 235.63 375.162 236.15L373.962 233.99C374.782 233.33 375.762 232.83 376.902 232.49C378.042 232.13 379.252 231.95 380.532 231.95ZM379.872 245.96C380.972 245.96 381.922 245.72 382.722 245.24C383.522 244.74 384.102 244.04 384.462 243.14V240.92H380.022C377.582 240.92 376.362 241.74 376.362 243.38C376.362 244.18 376.672 244.81 377.292 245.27C377.912 245.73 378.772 245.96 379.872 245.96Z" fill="#2BDE25"/>
</svg>
