<svg width="319" height="409" viewBox="0 0 319 409" fill="none" xmlns="http://www.w3.org/2000/svg">
<path d="M229.131 105.122L205.07 43.7521L196.42 44.9055L188.676 45.7763C188.873 43.4696 189.214 35.1885 184.41 30.8461C183.944 29.3582 182.716 27.6686 180.354 25.7655C168.842 16.4925 166.446 35.4595 166.446 35.4595C166.446 35.4595 163.821 39.4617 160.205 45.0554L158.308 44.7383L157.77 48.8673C149.763 61.3063 139.124 78.1395 139.124 79.7196C139.124 82.2513 137.687 85.6191 137.687 85.6191C137.687 85.6191 129.536 97.4179 126.654 103.323C124.977 106.807 122.522 109.96 119.435 112.596C119.435 112.596 118.739 113.063 117.597 113.749C117.67 112.633 117.89 111.528 118.254 110.457C119.304 107.441 121.745 104.857 122.395 101.755C122.547 101.011 122.604 100.255 122.566 99.4997C122.717 95.8609 120.702 92.2797 119.862 88.6409C118.884 84.4253 119.409 79.7831 116.849 76.1212C114.88 73.3243 111.389 71.5827 107.759 70.7811C104.425 70.0487 101.144 70.3082 97.7835 69.9968C94.6988 69.7085 91.752 68.509 88.6673 68.0649C87.0196 67.7501 85.314 67.7501 83.6663 68.0649C78.4486 69.3279 76.8144 75.1062 72.7846 78.2837C71.3342 79.4371 69.5556 80.2329 68.243 81.4958C66.3331 83.3354 65.6703 85.9016 65.7687 88.416C65.7435 89.2587 65.8006 90.1019 65.9393 90.936C66.4381 93.9521 67.7639 96.8066 68.5646 99.765C69.1699 101.954 69.4979 104.196 69.5425 106.449C69.5425 106.956 69.5425 107.464 69.49 107.965C69.5138 108.981 69.2064 109.982 68.604 110.849C67.8755 111.731 66.6744 112.158 65.6046 112.723C62.1077 110.284 59.4831 107.013 58.0439 103.3C58.0439 103.3 57.8667 103.496 57.5648 103.877V103.3C57.5648 103.3 51.0018 94.8344 50.0042 87.92L52.2881 88.1276L57.5386 23.2224L44.1302 21.4923C43.7561 18.1418 42.7388 13.2804 40.0414 9.73385C42.2925 5.83549 43.428 0.558879 33.5571 0.0341008C22.006 -0.582946 22.7148 7.32333 23.9421 11.6484C23.3858 14.0085 23.1653 16.4202 23.2858 18.8281L11.4723 17.3172L11.4067 18.1591H8.59765L0 84.3734L7.32441 84.0505L34.1674 86.5071C36.3136 103.652 39.687 124.839 43.6905 129.833C43.8237 130.002 43.9707 130.162 44.1302 130.312V160.651C44.1302 160.651 43.6511 199.865 35.4932 206.168C40.4977 204.604 45.7908 203.874 51.1002 204.017C51.0083 204.277 50.9164 204.553 50.8246 204.848C49.6305 208.718 48.7986 212.668 48.3371 216.658C48.2234 217.538 48.1206 218.457 48.0287 219.414C47.2773 228.198 47.4157 237.024 48.4422 245.786C51.8025 276.973 57.0792 299.313 57.0792 299.313L58.5493 317.444C58.5493 317.444 57.112 348.21 60.9448 358.325C62.3895 359.494 64.0494 360.44 65.854 361.122C65.8868 361.41 65.9262 361.698 65.959 362.004C65.9918 362.31 66.0443 362.783 66.0903 363.186C64.3708 363.873 61.1614 366.594 60.4657 377.286C60.4657 377.286 61.4239 385.296 59.0284 389.085C56.6329 392.874 58.0702 403.836 65.2633 405.099C69.8605 405.842 74.5733 405.842 79.1705 405.099C79.1705 405.099 82.5308 405.099 80.1287 394.563L79.7087 391.865C79.6562 386.646 79.9056 381.058 81.087 379.391C83.4825 376.017 80.1287 372.65 80.1287 372.65C80.1287 372.65 79.8925 372.765 79.5052 372.921C78.8883 370.008 78.0811 365.28 78.3698 361.67C78.3698 361.364 78.4289 361.093 78.4683 360.776C79.9319 360.104 81.2963 359.277 82.5308 358.313V318.286C82.5308 318.286 82.0517 256.754 87.3284 255.486C87.3284 255.486 89.724 277.82 88.7657 288.783C87.8075 299.746 90.2031 311.545 90.2031 311.545L91.1613 356.22C91.1613 356.22 92.0801 356.606 93.5634 357.062L93.4649 357.875C92.8808 362.84 91.9423 370.337 91.0891 374.927C90.5133 375.128 90.0009 375.448 89.5954 375.86C89.1899 376.271 88.9031 376.762 88.7592 377.292C87.3219 381.507 88.2801 392.043 85.3989 394.996C83.699 396.726 81.6645 400.249 82.6621 402.741C82.0386 404.926 82.3142 408.34 89.7174 408.905C100.75 409.747 105.548 404.69 105.548 404.69C105.548 404.69 106.985 402.585 105.548 398.79C104.11 394.996 106.027 388.255 106.027 388.255C106.027 388.255 107.057 382.534 105.37 381.784C105.226 381.104 105.095 380.671 105.095 380.671C105.117 379.375 104.575 378.121 103.579 377.165C103.539 372.753 103.743 364.593 105.508 359.219C105.613 358.913 105.718 358.642 105.83 358.325C107.252 358.109 108.623 357.686 109.886 357.073C109.886 357.073 109.407 347.38 112.767 340.638C116.127 333.897 114.204 306.92 114.204 306.92C114.204 306.92 112.767 299.832 114.795 294.089C117.118 287.723 118.861 281.205 120.006 274.597L122.835 257.187C122.835 257.187 130.284 235.994 120.472 214.242C120.072 213.342 119.632 212.442 119.159 211.543C118.346 209.98 117.44 208.411 116.429 206.854C116.272 206.612 116.101 206.364 115.937 206.122C116.967 205.897 117.551 205.764 117.551 205.764C117.551 205.764 104.603 179.237 112.754 165.726C112.754 165.726 117.348 161.689 118.004 157.254C118.818 151.389 119.704 145.53 121.161 139.763L121.417 138.749C121.417 138.749 121.457 138.552 121.522 138.201C121.706 138.097 121.883 137.987 122.06 137.872C135.882 129.003 147.801 91.9683 147.801 91.9683L151.64 85.6248L153.465 82.234L149.724 110.912L178.982 117.256L197.687 115.993L197.634 112.458L211.889 111.483L229.131 105.122ZM43.6577 21.5039L38.4597 20.8349C37.5474 16.7117 36.9305 14.007 36.9305 14.007C38.0199 12.8236 38.9843 11.5555 39.8117 10.2183C42.3254 13.5976 43.2901 18.211 43.6577 21.4808V21.5039ZM24.244 12.6518C24.605 13.736 24.9332 14.4338 24.9332 14.4338L25.5895 19.1914L23.8174 18.9665C23.7166 16.8465 23.8617 14.7229 24.2506 12.6288L24.244 12.6518ZM188.19 45.8743L181.154 46.6702C182.145 44.1097 183.373 39.9115 182.657 36.1111C183.345 35.5571 183.878 34.8703 184.213 34.1048C184.548 33.3393 184.676 32.5159 184.587 31.6996C188.768 36.0881 188.374 43.8387 188.19 45.857V45.8743ZM176.508 39.2944C178.605 38.6784 180.549 37.7175 182.237 36.4629C182.841 40.194 181.581 44.2942 180.623 46.7278L174.06 47.466L172.248 47.1603L176.508 39.2944Z" fill="url(#paint0_linear)"/>
<path d="M227.877 106.212L210.754 112.492L190.861 51.5431L195.528 46.6759L204.079 45.511L227.877 106.212Z" fill="#069801"/>
<path opacity="0.2" d="M227.877 106.212L210.754 112.492L190.861 51.5431L195.528 46.6759L204.079 45.511L227.877 106.212Z" fill="white"/>
<path d="M195.528 46.6759L165.81 50.0264L181.043 114.522L210.754 112.492L195.528 46.6759Z" fill="#069801"/>
<path opacity="0.07" d="M195.528 46.6759L165.81 50.0264L181.043 114.522L210.754 112.492L195.528 46.6759Z" fill="white"/>
<path d="M187.803 48.1291L187.33 48.0772C187.33 47.9215 189.299 32.6972 178.424 30.7769L178.516 30.3674C189.857 32.3685 187.842 47.9734 187.803 48.1291Z" fill="#535461"/>
<path d="M110.608 92.5681H77.871V134.671H110.608V92.5681Z" fill="#774E55"/>
<path opacity="0.2" d="M110.608 92.5681H77.871V134.671H110.608V92.5681Z" fill="black"/>
<path d="M196.709 116.95L178.208 118.201L181.056 54.8417L187.219 51.5085L195.757 52.7599L196.709 116.95Z" fill="#069801"/>
<path opacity="0.2" d="M196.709 116.95L178.208 118.201L181.056 54.8417L187.219 51.5085L195.757 52.7599L196.709 116.95Z" fill="black"/>
<path d="M187.219 51.5085L157.809 46.5029L149.271 111.95L178.208 118.201L187.219 51.5085Z" fill="#069801"/>
<path d="M14.0647 20.2467H9.79214L1.25357 85.6883L20.2275 84.8579L14.0647 20.2467Z" fill="#069801"/>
<path opacity="0.2" d="M14.0647 20.2467H9.79214L1.25357 85.6883L20.2275 84.8579L14.0647 20.2467Z" fill="black"/>
<path d="M12.6405 19.4105L7.42282 85.2731L52.9641 89.4425L58.1817 25.2465L12.6405 19.4105Z" fill="#069801"/>
<path d="M67.672 361.226C67.672 361.226 61.9818 360.81 61.0302 375.4C61.0302 375.4 61.9818 383.318 59.6059 387.072C57.2301 390.827 58.6543 401.662 65.7753 402.914C70.3311 403.652 75.002 403.652 79.5578 402.914C79.5578 402.914 82.8787 402.914 80.5094 392.493L75.7643 362.062L67.672 361.226Z" fill="#5C3D53"/>
<path opacity="0.05" d="M67.672 361.226C67.672 361.226 61.9818 360.81 61.0302 375.4C61.0302 375.4 61.9818 383.318 59.6059 387.072C57.2301 390.827 58.6543 401.662 65.7753 402.914C70.3311 403.652 75.002 403.652 79.5578 402.914C79.5578 402.914 82.8787 402.914 80.5094 392.493L75.7643 362.062L67.672 361.226Z" fill="black"/>
<path d="M97.5012 120.514C97.0943 126.719 98.5054 130.318 98.5054 130.318L86.1734 133.236C86.1734 133.236 65.7753 135.738 73.8414 128.622C76.6307 126.171 78.0023 121.967 78.5996 117.527C78.9733 114.494 79.0896 111.44 78.9474 108.392C78.8381 105.536 78.5576 102.687 78.1074 99.8573C78.1074 99.8573 107.996 90.6881 101.354 105.693C100.144 108.407 99.189 111.204 98.4988 114.055C97.9854 116.184 97.6519 118.342 97.5012 120.514Z" fill="#F8BDC5"/>
<path opacity="0.1" d="M101.354 105.699C100.144 108.413 99.189 111.21 98.4988 114.061C94.9611 114.721 91.2873 114.545 87.8524 113.55C84.4175 112.555 81.3446 110.777 78.9474 108.398C78.838 105.542 78.5576 102.693 78.1073 99.863C78.1073 99.863 107.996 90.6938 101.354 105.699Z" fill="black"/>
<path d="M94.2394 113.617C105.505 113.617 114.637 105.592 114.637 95.6937C114.637 85.795 105.505 77.7705 94.2394 77.7705C82.9738 77.7705 73.8413 85.795 73.8413 95.6937C73.8413 105.592 82.9738 113.617 94.2394 113.617Z" fill="#F8BDC5"/>
<path d="M58.1818 104.448V109.868L47.7465 133.628L44.8981 131.125C44.7409 130.977 44.5962 130.819 44.4649 130.652C37.5737 122.048 32.5595 64.8471 32.5595 64.8471L25.9242 16.481C25.9242 16.481 18.8098 1.48733 34.4562 2.30621C50.1026 3.1251 37.7771 16.06 37.7771 16.06C37.7771 16.06 48.2124 61.9118 46.7883 63.5784C45.3641 65.245 46.7883 70.2506 46.7883 70.2506C46.7883 70.2506 51.0608 79.8407 50.5817 86.9223C50.1026 94.004 58.1818 104.448 58.1818 104.448Z" fill="#F8BDC5"/>
<path d="M175.832 41.0879L151.161 86.9397L147.368 93.1794C147.368 93.1794 135.554 129.81 121.909 138.581C121.125 139.096 120.275 139.527 119.376 139.867L116.528 119.857L119.153 114.044L119.35 113.6C122.394 110.991 124.813 107.873 126.464 104.43C129.312 98.5944 137.379 86.9224 137.379 86.9224C137.379 86.9224 138.803 83.5892 138.803 81.0864C138.803 78.5836 165.843 37.3164 165.843 37.3164C165.843 37.3164 168.212 18.557 179.625 27.7262C191.038 36.8954 175.832 41.0879 175.832 41.0879Z" fill="#F8BDC5"/>
<path d="M80.4766 373.728C80.4766 373.728 64.3445 379.564 66.2413 374.143C67.3964 370.856 66.9698 364.645 66.4578 360.303C66.1297 357.471 65.7622 355.407 65.7622 355.407L79.5447 356.658C79.0629 357.715 78.7942 358.837 78.7505 359.974C78.2977 365.505 80.4766 373.728 80.4766 373.728Z" fill="#F8BDC5"/>
<path d="M105.561 357.512C103.073 365.101 103.723 378.318 103.723 378.318C103.723 378.318 89.0152 379.985 90.4394 376.652C91.4304 374.345 92.8808 362.915 93.6684 356.197C94.0162 353.262 94.2328 351.226 94.2328 351.226L107.517 353.729C106.612 354.877 105.95 356.158 105.561 357.512V357.512Z" fill="#F8BDC5"/>
<path opacity="0.1" d="M65.7687 355.39L79.5512 356.641C79.0694 357.697 78.8007 358.82 78.757 359.957C76.8727 360.824 74.7893 361.303 72.6635 361.36C70.5377 361.417 68.4249 361.05 66.4841 360.286C66.1362 357.448 65.7687 355.39 65.7687 355.39Z" fill="black"/>
<path opacity="0.1" d="M107.523 353.723C106.613 354.872 105.946 356.155 105.554 357.512C101.072 358.146 96.3658 357.033 93.6684 356.197C94.0162 353.262 94.2328 351.226 94.2328 351.226L107.523 353.723Z" fill="black"/>
<path d="M122.703 258.479L119.908 275.698C118.773 282.235 117.048 288.681 114.749 294.977C112.741 300.657 114.165 307.664 114.165 307.664C114.165 307.664 116.062 334.341 112.741 341.013C109.42 347.685 109.892 357.27 109.892 357.27C102.299 361.024 91.391 356.433 91.391 356.433L90.4394 312.248C90.4394 312.248 88.0701 300.576 89.0152 289.758C89.9602 278.939 87.591 256.829 87.591 256.829C82.3405 258.081 82.8459 318.938 82.8459 318.938V358.538C71.4589 367.292 61.4961 358.538 61.4961 358.538C57.7027 348.533 59.1269 318.102 59.1269 318.102L57.7027 300.178C57.7027 300.178 52.4522 278.086 49.1707 247.239C48.1559 238.573 48.0198 229.844 48.7637 221.156C48.8556 220.21 48.9563 219.301 49.0656 218.428C49.5204 214.483 50.3413 210.578 51.5203 206.751C51.8965 205.489 52.3791 204.253 52.9641 203.054L103.94 205.136L106.946 205.257L114.165 205.551C114.952 206.595 115.694 207.656 116.383 208.717C117.381 210.257 118.28 211.808 119.081 213.33C119.54 214.219 119.973 215.112 120.393 216C130.087 237.505 122.703 258.479 122.703 258.479Z" fill="#5E52AD"/>
<path opacity="0.1" d="M66.7203 205.326C66.7203 205.326 64.4889 224.933 48.7572 219.259C48.8491 218.313 48.9497 217.404 49.0591 216.531C52.7607 217.413 63.0056 218.63 63.3929 205.32L66.7203 205.326Z" fill="black"/>
<path opacity="0.1" d="M120.367 214.121C109.472 217.54 105.364 208.434 103.959 203.239L106.965 203.36C108.599 211.531 115.123 212.01 119.094 211.433C119.54 212.344 119.967 213.238 120.367 214.121Z" fill="black"/>
<path d="M71.8987 371.514C69.4769 371.179 65.7753 370.009 66.937 365.92C66.937 365.92 62.4544 364.559 62.9269 380.816C62.9269 380.816 62.4544 388.733 61.5027 390.406C60.5511 392.078 61.5027 402.078 71.4655 401.241C71.4655 401.241 78.5799 403.323 80.4766 399.99C80.4766 399.99 79.0524 380.816 81.4282 377.5C83.8041 374.184 80.4766 370.827 80.4766 370.827C80.4766 370.827 77.1163 372.465 74.7011 371.981C73.7823 371.756 72.8372 371.646 71.8987 371.514Z" fill="#5C3D53"/>
<path d="M83.7975 398.739C83.7975 398.739 79.0524 405.826 89.9668 406.657C100.881 407.487 105.62 402.487 105.62 402.487C105.62 402.487 107.044 400.405 105.62 396.651C104.196 392.897 106.092 386.23 106.092 386.23C106.092 386.23 107.517 378.313 104.196 379.979C100.875 381.646 83.7975 398.739 83.7975 398.739Z" fill="#5C3D53"/>
<path opacity="0.05" d="M83.7975 398.739C83.7975 398.739 79.0524 405.826 89.9668 406.657C100.881 407.487 105.62 402.487 105.62 402.487C105.62 402.487 107.044 400.405 105.62 396.651C104.196 392.897 106.092 386.23 106.092 386.23C106.092 386.23 107.517 378.313 104.196 379.979C100.875 381.646 83.7975 398.739 83.7975 398.739Z" fill="black"/>
<path d="M96.1362 373.313C96.1362 373.313 90.446 371.231 89.0218 375.395C87.5976 379.558 88.5492 389.985 85.7008 392.903C82.8524 395.821 79.059 403.738 90.4459 403.323C101.833 402.908 104.228 399.569 104.228 399.569C104.228 399.569 103.756 389.148 105.18 386.23C106.604 383.312 105.18 378.734 105.18 378.734C105.18 378.734 105.62 372.869 96.1362 373.313Z" fill="#5C3D53"/>
<path opacity="0.2" d="M24.9726 26.0827C25.4982 26.0827 25.9242 25.7083 25.9242 25.2465C25.9242 24.7847 25.4982 24.4103 24.9726 24.4103C24.447 24.4103 24.0209 24.7847 24.0209 25.2465C24.0209 25.7083 24.447 26.0827 24.9726 26.0827Z" fill="black"/>
<path opacity="0.2" d="M44.8981 28.1645C45.4237 28.1645 45.8498 27.7902 45.8498 27.3283C45.8498 26.8665 45.4237 26.4922 44.8981 26.4922C44.3726 26.4922 43.9465 26.8665 43.9465 27.3283C43.9465 27.7902 44.3726 28.1645 44.8981 28.1645Z" fill="black"/>
<path d="M45.1344 27.3341H44.6618C44.6618 27.1553 44.9965 9.57238 33.5046 7.95192C31.2403 7.63474 29.3895 8.08455 28.0047 9.28981C23.2596 13.4246 25.2219 25.1024 25.2416 25.2177L24.7756 25.2811C24.6903 24.791 22.7608 13.2747 27.6765 8.9957C29.1729 7.68664 31.1681 7.19646 33.5833 7.53671C45.4757 9.20908 45.1409 27.1553 45.1344 27.3341Z" fill="#535461"/>
<path d="M179.369 50.7646L178.943 50.5858C179.015 50.4474 186.326 36.5322 176.665 31.6823L176.901 31.319C186.936 36.3591 179.448 50.6204 179.369 50.7646Z" fill="#535461"/>
<path opacity="0.1" d="M98.5054 130.294L86.1734 133.212C86.1734 133.212 65.7753 135.715 73.8414 128.599C76.6307 126.148 78.0023 121.944 78.5996 117.504C81.8221 121.944 85.7008 120.681 85.7008 120.681L97.4619 120.479H97.5078C97.0943 126.719 98.5054 130.294 98.5054 130.294Z" fill="black"/>
<path opacity="0.1" d="M121.916 138.593C121.132 139.107 120.282 139.539 119.383 139.879L116.534 119.868L119.159 114.055L119.816 113.611C125.742 115.093 122.684 134.262 121.916 138.593Z" fill="black"/>
<path opacity="0.1" d="M58.1818 104.448V109.868L47.7465 133.628L44.8981 131.125C44.741 130.977 44.5962 130.819 44.4649 130.652C45.6988 118.265 58.1818 104.448 58.1818 104.448Z" fill="black"/>
<path opacity="0.1" d="M116.377 206.82C109.741 208.279 75.1014 215.43 64.8236 208.659C60.7676 205.989 55.9897 205.009 51.5202 204.853C51.8965 203.591 52.3791 202.356 52.9641 201.157L103.94 203.239L106.946 203.36L114.165 203.654C114.953 204.703 115.688 205.759 116.377 206.82Z" fill="black"/>
<path d="M27.1121 5.86433C27.1121 5.86433 34.2265 16.2849 38.9716 5.86433Z" fill="#F8BDC5"/>
<path d="M173.462 27.3283C173.462 27.3283 170.614 39.8365 181.994 34.0005Z" fill="#F8BDC5"/>
<path d="M97.4618 121.333C104.025 124.049 119.383 113.617 119.383 113.617C126.024 115.283 121.279 139.464 121.279 139.464L121.023 140.467C119.579 146.17 118.707 151.966 117.899 157.767C117.289 162.144 112.741 166.147 112.741 166.147C104.675 179.485 117.486 205.747 117.486 205.747C117.486 205.747 76.2106 215.337 64.8302 207.829C53.4498 200.321 36.3661 206.162 36.3661 206.162C44.4321 199.911 44.8981 161.141 44.8981 161.141V131.154C45.8497 118.646 58.6806 104.477 58.6806 104.477C63.9311 117.4 78.5208 118.253 78.5208 118.253C81.7564 122.867 85.7402 121.569 85.7402 121.569L97.4618 121.333Z" fill="#EB6475"/>
<path opacity="0.1" d="M88.9298 70.4351C87.3015 70.1242 85.6162 70.1242 83.9878 70.4351C78.8293 71.6865 77.2082 77.4014 73.2244 80.5385C71.7936 81.6919 70.0282 82.4646 68.7287 83.716C66.4185 85.942 65.9525 89.2406 66.4447 92.222C66.937 95.2035 68.2496 98.0292 69.07 100.953C69.8801 103.88 70.1876 106.896 69.9822 109.903C70.0004 110.901 69.6955 111.883 69.1028 112.735C68.1511 113.888 66.3988 114.251 65.1649 115.174C61.3977 118.023 64.5086 123.934 61.7455 127.572C60.5576 129.147 58.3327 130.185 57.8799 132.03C57.5583 133.339 58.2409 134.66 58.9103 135.865C60.6692 139.037 62.4937 142.295 65.4734 144.659C68.453 147.024 72.1349 148.212 75.7971 149.417C76.9063 149.78 78.2976 150.098 79.1443 149.377C80.1878 148.477 79.4002 146.955 78.6783 145.842C77.5363 144.112 76.6438 142.024 77.3132 140.075C77.9826 138.126 80.1288 136.834 81.5726 135.208C85.2939 130.998 84.0732 124.954 82.2289 119.88C81.4479 117.74 80.5685 115.462 81.2313 113.288C81.5135 112.354 82.0714 111.506 82.4258 110.589C84.001 106.506 81.356 102.026 82.1305 97.7697C82.5332 96.1078 83.1958 94.5028 84.0994 93.0006L88.267 85.1289C88.6863 84.1815 89.3128 83.3156 90.1112 82.58C91.4062 81.665 93.0481 81.2157 94.7054 81.3228C96.3948 81.356 98.0589 81.6906 99.5966 82.3062C101.134 82.9218 102.514 83.8056 103.651 84.904C108.114 89.2637 107.832 95.8609 107.293 101.674L106.906 105.872C106.624 108.894 106.25 112.117 104.084 114.47C102.397 116.293 99.6736 117.533 98.9779 119.805C98.3741 121.76 99.5095 123.882 98.9123 125.837C98.0197 128.76 93.9112 129.816 91.7388 132.18C90.8251 133.208 90.2851 134.453 90.1891 135.755C90.0931 137.056 90.4456 138.353 91.2007 139.475C92.0276 140.628 93.3468 141.782 93.1696 143.137C93.0186 144.227 91.9029 145.109 91.9095 146.205C91.9629 146.695 92.184 147.16 92.5436 147.538C92.9032 147.915 93.3846 148.189 93.9244 148.321C95.0108 148.569 96.1436 148.616 97.2518 148.46L109.019 147.526C109.756 147.523 110.479 147.348 111.113 147.018C111.933 146.499 112.203 145.542 112.314 144.659C112.787 140.98 111.658 136.961 113.751 133.743C114.408 132.711 115.372 131.851 116.101 130.86C120.118 125.323 116.068 117.815 118.254 111.535C119.291 108.554 121.706 105.993 122.349 102.931C123.202 98.8481 120.78 94.8575 119.842 90.8207C118.877 86.6513 119.396 82.0609 116.862 78.4336C114.926 75.6656 111.461 73.9413 107.877 73.1513C104.596 72.4246 101.314 72.6841 98.0328 72.3727C94.8957 72.0556 91.9817 70.8676 88.9298 70.4351Z" fill="black"/>
<path d="M88.9298 69.5989C87.3015 69.288 85.6162 69.288 83.9878 69.5989C78.8293 70.8503 77.2082 76.5652 73.2244 79.7024C71.7936 80.8557 70.0282 81.6285 68.7287 82.8799C66.4185 85.1059 65.9525 88.4045 66.4447 91.3859C66.937 94.3673 68.2496 97.1931 69.07 100.117C69.8801 103.044 70.1876 106.06 69.9822 109.067C70.0004 110.065 69.6955 111.047 69.1028 111.898C68.1511 113.052 66.3988 113.415 65.1649 114.338C61.3977 117.187 64.5086 123.098 61.7455 126.736C60.5576 128.311 58.3327 129.349 57.8799 131.194C57.5583 132.503 58.2409 133.824 58.9103 135.029C60.6692 138.201 62.4937 141.459 65.4734 143.823C68.453 146.188 72.1349 147.376 75.7971 148.581C76.9063 148.944 78.2976 149.261 79.1443 148.541C80.1878 147.641 79.4002 146.119 78.6783 145.006C77.5363 143.276 76.6438 141.188 77.3132 139.239C77.9826 137.29 80.1288 135.998 81.5726 134.372C85.2939 130.162 84.0732 124.118 82.2289 119.043C81.4479 116.904 80.5685 114.626 81.2313 112.452C81.5135 111.518 82.0714 110.67 82.4258 109.753C84.001 105.67 81.356 101.189 82.1305 96.9335C82.5332 95.2716 83.1958 93.6667 84.0994 92.1644L88.267 84.2927C88.6863 83.3454 89.3128 82.4794 90.1112 81.7438C91.4062 80.8288 93.0481 80.3795 94.7054 80.4867C96.3948 80.5199 98.0589 80.8544 99.5966 81.47C101.134 82.0857 102.514 82.9695 103.651 84.0678C108.114 88.4275 107.832 95.0247 107.293 100.838L106.906 105.036C106.624 108.058 106.25 111.281 104.084 113.634C102.397 115.456 99.6736 116.696 98.9779 118.968C98.3741 120.923 99.5095 123.046 98.9123 125.001C98.0197 127.924 93.9112 128.98 91.7388 131.344C90.8251 132.372 90.2851 133.617 90.1891 134.919C90.0931 136.22 90.4456 137.516 91.2007 138.639C92.0276 139.792 93.3468 140.946 93.1696 142.301C93.0186 143.391 91.9029 144.273 91.9095 145.369C91.9629 145.859 92.184 146.324 92.5436 146.701C92.9032 147.079 93.3846 147.352 93.9244 147.485C95.0108 147.733 96.1436 147.78 97.2518 147.624L109.019 146.689C109.756 146.687 110.479 146.512 111.113 146.182C111.933 145.663 112.203 144.706 112.314 143.823C112.787 140.144 111.658 136.125 113.751 132.907C114.408 131.875 115.372 131.015 116.101 130.023C120.118 124.487 116.068 116.979 118.254 110.699C119.291 107.717 121.706 105.157 122.349 102.095C123.202 98.0119 120.78 94.0213 119.842 89.9846C118.877 85.8152 119.396 81.2248 116.862 77.5975C114.926 74.8294 111.461 73.1052 107.877 72.3151C104.596 71.5885 101.314 71.848 98.0328 71.5366C94.8957 71.2252 91.9817 70.0372 88.9298 69.5989Z" fill="#774E55"/>
<path opacity="0.1" d="M63.6357 165.097C63.6357 165.097 73.1259 167.6 86.8822 162.179H93.99C93.99 162.179 94.4625 168.015 112.964 165.512" fill="black"/>
<g opacity="0.1">
<path opacity="0.1" d="M295.234 373.324C295.234 373.324 290.134 350.609 300.635 335.039C305.09 328.532 307.022 320.932 306.142 313.379C305.693 309.797 304.871 306.258 303.687 302.808" stroke="#535461" stroke-width="2" stroke-miterlimit="10"/>
<path opacity="0.1" d="M310.244 292.958C309.962 295.669 303.549 303.079 303.549 303.079C303.549 303.079 298.785 294.769 299.067 292.059C299.28 290.814 300.026 289.689 301.153 288.912C302.28 288.136 303.702 287.767 305.129 287.882C306.555 287.997 307.877 288.587 308.824 289.531C309.771 290.474 310.272 291.701 310.224 292.958H310.244Z" fill="#069801"/>
<path opacity="0.1" d="M317.903 308.719C315.986 310.859 306.024 314.019 306.024 314.019C306.024 314.019 307.166 304.792 309.082 302.629C310.018 301.645 311.352 301.02 312.804 300.887C314.255 300.753 315.708 301.121 316.855 301.913C318.003 302.705 318.754 303.859 318.949 305.13C319.145 306.4 318.77 307.688 317.903 308.719V308.719Z" fill="#069801"/>
<path opacity="0.1" d="M314.818 334.347C311.937 335.344 301.521 333.655 301.521 333.655C301.521 333.655 307.822 326.158 310.71 325.177C312.082 324.745 313.592 324.799 314.92 325.328C316.248 325.856 317.289 326.818 317.824 328.01C318.359 329.202 318.345 330.529 317.785 331.712C317.225 332.895 316.164 333.84 314.825 334.347H314.818Z" fill="#069801"/>
<path opacity="0.1" d="M307.514 353.262C304.888 354.675 294.276 354.553 294.276 354.553C294.276 354.553 299.047 346.244 301.699 344.831C302.329 344.477 303.034 344.237 303.771 344.126C304.508 344.015 305.264 344.034 305.992 344.183C306.721 344.332 307.408 344.608 308.014 344.993C308.62 345.379 309.132 345.868 309.519 346.43C309.907 346.992 310.163 347.617 310.272 348.267C310.381 348.918 310.341 349.58 310.154 350.217C309.967 350.854 309.637 351.451 309.184 351.974C308.73 352.497 308.162 352.935 307.514 353.262V353.262Z" fill="#069801"/>
<path opacity="0.1" d="M294.243 313.598C296.258 315.668 306.365 318.453 306.365 318.453C306.365 318.453 304.783 309.226 302.768 307.185C301.801 306.191 300.423 305.575 298.939 305.474C297.454 305.372 295.985 305.793 294.853 306.643C293.722 307.493 293.021 308.704 292.906 310.008C292.79 311.312 293.269 312.604 294.236 313.598H294.243Z" fill="#069801"/>
<path opacity="0.1" d="M286.019 335.829C288.645 337.27 299.237 337.276 299.237 337.276C299.237 337.276 294.591 328.914 291.966 327.473C290.704 326.805 289.195 326.599 287.763 326.901C286.331 327.202 285.091 327.986 284.311 329.083C283.53 330.18 283.272 331.503 283.592 332.766C283.911 334.029 284.783 335.131 286.019 335.834V335.829Z" fill="#069801"/>
<path opacity="0.1" d="M281.406 358.4C283.716 360.211 294.158 361.791 294.158 361.791C294.158 361.791 291.191 352.858 288.907 351.047C287.792 350.204 286.345 349.779 284.877 349.863C283.408 349.948 282.037 350.537 281.058 351.502C280.078 352.467 279.569 353.731 279.641 355.022C279.712 356.313 280.357 357.529 281.438 358.406L281.406 358.4Z" fill="#069801"/>
</g>
<defs>
<linearGradient id="paint0_linear" x1="114.565" y1="408.992" x2="114.565" y2="0.0456302" gradientUnits="userSpaceOnUse">
<stop stop-color="#808080" stop-opacity="0.25"/>
<stop offset="0.54" stop-color="#808080" stop-opacity="0.12"/>
<stop offset="1" stop-color="#808080" stop-opacity="0.1"/>
</linearGradient>
</defs>
</svg>
