<svg width="180" height="212" viewBox="0 0 180 212" fill="none" xmlns="http://www.w3.org/2000/svg">
<path d="M128.737 54.4888L115.219 22.6784L110.359 23.2762L106.007 23.7276C106.118 22.5319 106.31 18.2395 103.61 15.9887C103.349 15.2175 102.659 14.3417 101.332 13.3552C94.8638 8.54869 93.5179 18.38 93.5179 18.38C93.5179 18.38 92.0429 20.4545 90.0111 23.3539L88.9454 23.1895L88.643 25.3298C84.1443 31.7773 78.1669 40.5026 78.1669 41.3217C78.1669 42.6339 77.3594 44.3796 77.3594 44.3796C77.3594 44.3796 72.7796 50.4954 71.1608 53.5562C70.2184 55.362 68.8392 56.9964 67.1045 58.3628C67.1045 58.3628 66.7137 58.6049 66.072 58.9606C66.1129 58.382 66.2366 57.8092 66.4408 57.2538C67.0308 55.6905 68.4025 54.3514 68.7676 52.7432C68.8531 52.3577 68.8852 51.9657 68.8635 51.5744C68.9483 49.6883 67.8162 47.832 67.3442 45.9459C66.7948 43.7608 67.0898 41.3546 65.6517 39.4564C64.5454 38.0067 62.5837 37.104 60.5445 36.6885C58.6713 36.3089 56.8276 36.4434 54.9396 36.282C53.2065 36.1325 51.5508 35.5108 49.8177 35.2806C48.8919 35.1174 47.9336 35.1174 47.0078 35.2806C44.0763 35.9352 43.1581 38.9304 40.894 40.5774C40.0791 41.1752 39.0798 41.5877 38.3423 42.2423C37.2692 43.1959 36.8968 44.526 36.9521 45.8293C36.9379 46.2661 36.97 46.7032 37.048 47.1356C37.3282 48.6989 38.0731 50.1785 38.523 51.7119C38.8631 52.8468 39.0473 54.0087 39.0724 55.1764C39.0724 55.4394 39.0724 55.7024 39.0429 55.9625C39.0563 56.489 38.8836 57.0076 38.5451 57.4571C38.1358 57.9144 37.461 58.1356 36.8599 58.4285C34.8952 57.1646 33.4205 55.469 32.612 53.5443C32.612 53.5443 32.5124 53.6459 32.3428 53.8432V53.5443C32.3428 53.5443 28.6553 49.1562 28.0948 45.5722L29.3781 45.6798L32.328 12.037L24.7945 11.1403C24.5843 9.40359 24.0128 6.88374 22.4972 5.04542C23.762 3.02475 24.4 0.289688 18.854 0.0176757C12.3641 -0.302163 12.7623 3.79595 13.4519 6.03781C13.1393 7.26114 13.0154 8.51121 13.0831 9.7593L6.44569 8.97614L6.40882 9.41256H4.83059L0 43.7339L4.11522 43.5665L19.197 44.8399C20.4028 53.7266 22.2981 64.7087 24.5475 67.2973C24.6223 67.3848 24.7049 67.4677 24.7945 67.5454V83.2713C24.7945 83.2713 24.5253 103.598 19.9418 106.865C22.7536 106.054 25.7275 105.676 28.7106 105.75C28.659 105.884 28.6074 106.028 28.5558 106.18C27.8849 108.186 27.4174 110.234 27.1582 112.302C27.0943 112.758 27.0365 113.235 26.9849 113.731C26.5627 118.284 26.6405 122.858 27.2172 127.4C29.1052 143.565 32.0699 155.145 32.0699 155.145L32.8959 164.543C32.8959 164.543 32.0884 180.49 34.2418 185.733C35.0535 186.339 35.9861 186.83 37.0001 187.183C37.0185 187.332 37.0406 187.482 37.059 187.64C37.0775 187.799 37.107 188.044 37.1328 188.253C36.1667 188.609 34.3635 190.02 33.9726 195.562C33.9726 195.562 34.511 199.713 33.1651 201.677C31.8191 203.641 32.6267 209.324 36.6682 209.978C39.2511 210.363 41.899 210.363 44.4819 209.978C44.4819 209.978 46.3699 209.978 45.0203 204.517L44.7843 203.118C44.7548 200.413 44.8949 197.516 45.5587 196.653C46.9046 194.904 45.0203 193.158 45.0203 193.158C45.0203 193.158 44.8875 193.218 44.67 193.299C44.3234 191.789 43.8698 189.338 44.0321 187.467C44.0321 187.308 44.0652 187.168 44.0874 187.004C44.9097 186.655 45.6763 186.227 46.3699 185.727V164.98C46.3699 164.98 46.1007 133.085 49.0654 132.428C49.0654 132.428 50.4114 144.005 49.873 149.687C49.3346 155.369 50.6805 161.485 50.6805 161.485L51.2189 184.642C51.2189 184.642 51.7352 184.842 52.5685 185.079L52.5132 185.5C52.185 188.074 51.6577 191.96 51.1784 194.339C50.8548 194.443 50.567 194.609 50.3391 194.822C50.1113 195.035 49.9501 195.29 49.8693 195.564C49.0618 197.75 49.6001 203.211 47.9813 204.741C47.0263 205.638 45.8832 207.464 46.4437 208.756C46.0933 209.888 46.2482 211.658 50.4077 211.951C56.6063 212.387 59.3018 209.766 59.3018 209.766C59.3018 209.766 60.1094 208.675 59.3018 206.708C58.4943 204.741 59.5711 201.247 59.5711 201.247C59.5711 201.247 60.15 198.282 59.2023 197.893C59.1212 197.54 59.0474 197.316 59.0474 197.316C59.0602 196.644 58.7554 195.994 58.1956 195.499C58.1735 193.212 58.2878 188.982 59.2797 186.197C59.3387 186.038 59.3977 185.898 59.4604 185.733C60.2593 185.621 61.0295 185.402 61.7393 185.085C61.7393 185.085 61.4701 180.06 63.3581 176.565C65.246 173.071 64.1656 159.088 64.1656 159.088C64.1656 159.088 63.3581 155.414 64.4975 152.437C65.8028 149.138 66.7818 145.759 67.4254 142.334L69.0147 133.31C69.0147 133.31 73.1999 122.324 67.6871 111.049C67.4622 110.583 67.2152 110.117 66.9497 109.651C66.4924 108.84 65.9835 108.027 65.4157 107.22C65.3272 107.095 65.2313 106.966 65.1391 106.841C65.7181 106.724 66.0462 106.655 66.0462 106.655C66.0462 106.655 58.7709 92.9053 63.3507 85.9018C63.3507 85.9018 65.9319 83.8094 66.3007 81.5107C66.7579 78.4708 67.2557 75.4338 68.0744 72.4446L68.2181 71.9185C68.2181 71.9185 68.2403 71.8169 68.2772 71.6346C68.3804 71.5808 68.48 71.524 68.5795 71.4642C76.3453 66.8669 83.0418 47.6706 83.0418 47.6706L85.199 44.3826L86.2241 42.6249L84.1222 57.49L100.561 60.778L111.07 60.1234L111.041 58.291L119.05 57.7859L128.737 54.4888ZM24.529 11.1463L21.6086 10.7995C21.096 8.66228 20.7494 7.26037 20.7494 7.26037C21.3615 6.64697 21.9033 5.98963 22.3682 5.2965C23.7805 7.04814 24.3225 9.43946 24.529 11.1343V11.1463ZM13.6215 6.55792C13.8243 7.11988 14.0087 7.48157 14.0087 7.48157L14.3774 9.94761L13.3818 9.83103C13.3251 8.73215 13.4067 7.63145 13.6252 6.54597L13.6215 6.55792ZM105.734 23.7784L101.781 24.1909C102.338 22.8637 103.028 20.6876 102.626 18.7178C103.013 18.4306 103.312 18.0746 103.5 17.6778C103.688 17.281 103.76 16.8542 103.71 16.4311C106.059 18.7058 105.838 22.7232 105.734 23.7694V23.7784ZM99.1708 20.3678C100.349 20.0485 101.441 19.5504 102.39 18.9001C102.729 20.8341 102.021 22.9594 101.483 24.2208L97.7953 24.6034L96.7776 24.445L99.1708 20.3678Z" fill="url(#paint0_linear)"/>
<path d="M128.033 55.0538L118.412 58.309L107.235 26.7167L109.857 24.1939L114.662 23.5901L128.033 55.0538Z" fill="#069801"/>
<path opacity="0.2" d="M128.033 55.0538L118.412 58.309L107.235 26.7167L109.857 24.1939L114.662 23.5901L128.033 55.0538Z" fill="white"/>
<path d="M109.857 24.1939L93.1602 25.9306L101.719 59.3612L118.412 58.309L109.857 24.1939Z" fill="#069801"/>
<path opacity="0.07" d="M109.857 24.1939L93.1602 25.9306L101.719 59.3612L118.412 58.309L109.857 24.1939Z" fill="white"/>
<path d="M105.517 24.9471L105.251 24.9202C105.251 24.8395 106.358 16.9482 100.248 15.9528L100.299 15.7406C106.671 16.7778 105.539 24.8664 105.517 24.9471Z" fill="#535461"/>
<path d="M62.1449 47.9815H43.7518V69.8052H62.1449V47.9815Z" fill="#774E55"/>
<path opacity="0.2" d="M62.1449 47.9815H43.7518V69.8052H62.1449V47.9815Z" fill="black"/>
<path d="M110.521 60.6196L100.126 61.2682L101.726 28.4265L105.189 26.6988L109.986 27.3474L110.521 60.6196Z" fill="#069801"/>
<path opacity="0.2" d="M110.521 60.6196L100.126 61.2682L101.726 28.4265L105.189 26.6988L109.986 27.3474L110.521 60.6196Z" fill="black"/>
<path d="M105.189 26.6988L88.6652 24.1042L83.8678 58.028L100.126 61.2682L105.189 26.6988Z" fill="#069801"/>
<path d="M7.90225 10.4946H5.50171L0.704315 44.4154L11.3648 43.985L7.90225 10.4946Z" fill="#069801"/>
<path opacity="0.2" d="M7.90225 10.4946H5.50171L0.704315 44.4154L11.3648 43.985L7.90225 10.4946Z" fill="black"/>
<path d="M7.10203 10.0612L4.1705 44.2002L29.7578 46.3614L32.6894 13.0862L7.10203 10.0612Z" fill="#069801"/>
<path d="M38.0215 187.237C38.0215 187.237 34.8244 187.022 34.2898 194.584C34.2898 194.584 34.8244 198.688 33.4896 200.634C32.1547 202.58 32.9549 208.197 36.9558 208.845C39.5155 209.228 42.1398 209.228 44.6995 208.845C44.6995 208.845 46.5653 208.845 45.2342 203.444L42.5681 187.67L38.0215 187.237Z" fill="#5C3D53"/>
<path opacity="0.05" d="M38.0215 187.237C38.0215 187.237 34.8244 187.022 34.2898 194.584C34.2898 194.584 34.8244 198.688 33.4896 200.634C32.1547 202.58 32.9549 208.197 36.9558 208.845C39.5155 209.228 42.1398 209.228 44.6995 208.845C44.6995 208.845 46.5653 208.845 45.2342 203.444L42.5681 187.67L38.0215 187.237Z" fill="black"/>
<path d="M54.781 62.4669C54.5524 65.6832 55.3452 67.5484 55.3452 67.5484L48.4165 69.061C48.4165 69.061 36.9558 70.3582 41.4877 66.6696C43.0549 65.3992 43.8256 63.2202 44.1611 60.9185C44.3711 59.3464 44.4364 57.7637 44.3566 56.1837C44.2951 54.7034 44.1376 53.2267 43.8846 51.7598C43.8846 51.7598 60.6773 47.007 56.9456 54.7848C56.2658 56.1916 55.7293 57.6412 55.3415 59.1191C55.053 60.2223 54.8657 61.3413 54.781 62.4669Z" fill="#F8BDC5"/>
<path opacity="0.1" d="M56.9456 54.7878C56.2657 56.1946 55.7293 57.6442 55.3415 59.122C53.3539 59.4644 51.2897 59.3731 49.3598 58.8574C47.4299 58.3417 45.7034 57.4201 44.3566 56.1867C44.2951 54.7064 44.1375 53.2297 43.8846 51.7627C43.8846 51.7627 60.6773 47.01 56.9456 54.7878Z" fill="black"/>
<path d="M52.9483 58.8919C59.2779 58.8919 64.409 54.7325 64.409 49.6016C64.409 44.4707 59.2779 40.3114 52.9483 40.3114C46.6188 40.3114 41.4877 44.4707 41.4877 49.6016C41.4877 54.7325 46.6188 58.8919 52.9483 58.8919Z" fill="#F8BDC5"/>
<path d="M32.6894 54.1391V56.9489L26.8263 69.2642L25.226 67.9669C25.1377 67.89 25.0563 67.8081 24.9826 67.7218C21.1108 63.262 18.2935 33.6127 18.2935 33.6127L14.5655 8.54271C14.5655 8.54271 10.5683 0.770935 19.3592 1.19539C28.1501 1.61985 21.2251 8.3245 21.2251 8.3245C21.2251 8.3245 27.0881 32.0912 26.288 32.955C25.4878 33.8189 26.288 36.4135 26.288 36.4135C26.288 36.4135 28.6885 41.3844 28.4193 45.0551C28.1501 48.7258 32.6894 54.1391 32.6894 54.1391Z" fill="#F8BDC5"/>
<path d="M98.7909 21.2974L84.9297 45.0641L82.7984 48.2983C82.7984 48.2983 76.1609 67.2854 68.4947 71.8319C68.0542 72.0986 67.5764 72.3223 67.0714 72.4985L65.471 62.1261L66.946 59.1131L67.0566 58.8829C68.7669 57.5307 70.126 55.9147 71.0538 54.1302C72.6542 51.1052 77.1861 45.0551 77.1861 45.0551C77.1861 45.0551 77.9863 43.3274 77.9863 42.0301C77.9863 40.7328 93.1786 19.3425 93.1786 19.3425C93.1786 19.3425 94.5098 9.61881 100.922 14.3715C107.335 19.1243 98.7909 21.2974 98.7909 21.2974Z" fill="#F8BDC5"/>
<path d="M45.2157 193.717C45.2157 193.717 36.1519 196.742 37.2176 193.932C37.8666 192.229 37.6269 189.009 37.3393 186.758C37.1549 185.291 36.9484 184.221 36.9484 184.221L44.6921 184.869C44.4215 185.417 44.2705 185.999 44.246 186.588C43.9915 189.455 45.2157 193.717 45.2157 193.717Z" fill="#F8BDC5"/>
<path d="M59.3092 185.312C57.9117 189.245 58.2768 196.097 58.2768 196.097C58.2768 196.097 50.0131 196.96 50.8133 195.233C51.3701 194.037 52.1851 188.113 52.6275 184.63C52.823 183.109 52.9447 182.054 52.9447 182.054L60.4081 183.351C59.8999 183.946 59.5278 184.61 59.3092 185.312V185.312Z" fill="#F8BDC5"/>
<path opacity="0.1" d="M36.9521 184.212L44.6958 184.86C44.4251 185.408 44.2741 185.99 44.2496 186.579C43.1909 187.028 42.0203 187.277 40.826 187.307C39.6316 187.336 38.4445 187.146 37.354 186.75C37.1586 185.279 36.9521 184.212 36.9521 184.212Z" fill="black"/>
<path opacity="0.1" d="M60.4118 183.348C59.9006 183.943 59.5259 184.609 59.3055 185.312C56.787 185.641 54.1431 185.064 52.6275 184.63C52.823 183.109 52.9447 182.054 52.9447 182.054L60.4118 183.348Z" fill="black"/>
<path d="M68.9409 133.979L67.37 142.905C66.7327 146.293 65.7636 149.634 64.4717 152.897C63.3433 155.842 64.1435 159.474 64.1435 159.474C64.1435 159.474 65.2092 173.301 63.3433 176.76C61.4775 180.218 61.743 185.186 61.743 185.186C57.4766 187.132 51.348 184.753 51.348 184.753L50.8133 161.85C50.8133 161.85 49.4821 155.8 50.0131 150.192C50.5441 144.585 49.2129 133.124 49.2129 133.124C46.263 133.773 46.5469 165.317 46.5469 165.317V185.844C40.1492 190.381 34.5516 185.844 34.5516 185.844C32.4202 180.658 33.2204 164.884 33.2204 164.884L32.4202 155.594C32.4202 155.594 29.4702 144.142 27.6265 128.153C27.0564 123.661 26.9799 119.137 27.3979 114.633C27.4495 114.143 27.506 113.672 27.5675 113.22C27.823 111.175 28.2842 109.15 28.9466 107.167C29.158 106.512 29.4292 105.872 29.7579 105.25L58.3984 106.33L60.0873 106.392L64.1435 106.545C64.586 107.086 65.0027 107.636 65.3899 108.186C65.9504 108.984 66.4555 109.788 66.9054 110.577C67.1635 111.037 67.4069 111.501 67.6429 111.961C73.0893 123.108 68.9409 133.979 68.9409 133.979Z" fill="#5E52AD"/>
<path opacity="0.1" d="M37.4868 106.428C37.4868 106.428 36.233 116.591 27.3942 113.65C27.4458 113.16 27.5024 112.688 27.5638 112.236C29.6436 112.693 35.3997 113.324 35.6172 106.425L37.4868 106.428Z" fill="black"/>
<path opacity="0.1" d="M67.6282 110.987C61.507 112.759 59.1986 108.039 58.4095 105.346L60.0984 105.409C61.0165 109.645 64.6819 109.893 66.9128 109.594C67.1635 110.066 67.4032 110.529 67.6282 110.987Z" fill="black"/>
<path d="M40.3962 192.569C39.0356 192.396 36.9558 191.789 37.6085 189.67C37.6085 189.67 35.09 188.965 35.3555 197.391C35.3555 197.391 35.09 201.495 34.5553 202.362C34.0206 203.229 34.5553 208.412 40.1529 207.978C40.1529 207.978 44.1501 209.058 45.2157 207.33C45.2157 207.33 44.4156 197.391 45.7504 195.672C47.0853 193.953 45.2157 192.214 45.2157 192.214C45.2157 192.214 43.3278 193.063 41.9708 192.812C41.4545 192.695 40.9235 192.638 40.3962 192.569Z" fill="#5C3D53"/>
<path d="M47.0816 206.681C47.0816 206.681 44.4156 210.355 50.5478 210.785C56.6801 211.216 59.3424 208.624 59.3424 208.624C59.3424 208.624 60.1426 207.545 59.3424 205.599C58.5423 203.653 59.6079 200.198 59.6079 200.198C59.6079 200.198 60.4081 196.094 58.5423 196.957C56.6764 197.821 47.0816 206.681 47.0816 206.681Z" fill="#5C3D53"/>
<path opacity="0.05" d="M47.0816 206.681C47.0816 206.681 44.4156 210.355 50.5478 210.785C56.6801 211.216 59.3424 208.624 59.3424 208.624C59.3424 208.624 60.1426 207.545 59.3424 205.599C58.5423 203.653 59.6079 200.198 59.6079 200.198C59.6079 200.198 60.4081 196.094 58.5423 196.957C56.6764 197.821 47.0816 206.681 47.0816 206.681Z" fill="black"/>
<path d="M54.0141 193.502C54.0141 193.502 50.817 192.423 50.0168 194.581C49.2166 196.739 49.7513 202.144 48.151 203.656C46.5506 205.169 44.4192 209.273 50.817 209.057C57.2148 208.842 58.5607 207.112 58.5607 207.112C58.5607 207.112 58.2952 201.71 59.0954 200.198C59.8956 198.685 59.0954 196.312 59.0954 196.312C59.0954 196.312 59.3425 193.272 54.0141 193.502Z" fill="#5C3D53"/>
<path opacity="0.2" d="M14.0308 13.5196C14.3261 13.5196 14.5655 13.3256 14.5655 13.0862C14.5655 12.8468 14.3261 12.6528 14.0308 12.6528C13.7355 12.6528 13.4962 12.8468 13.4962 13.0862C13.4962 13.3256 13.7355 13.5196 14.0308 13.5196Z" fill="black"/>
<path opacity="0.2" d="M25.226 14.5987C25.5213 14.5987 25.7607 14.4047 25.7607 14.1653C25.7607 13.9259 25.5213 13.7319 25.226 13.7319C24.9307 13.7319 24.6913 13.9259 24.6913 14.1653C24.6913 14.4047 24.9307 14.5987 25.226 14.5987Z" fill="black"/>
<path d="M25.3587 14.1683H25.0932C25.0932 14.0756 25.2813 4.96172 18.8245 4.12177C17.5523 3.95737 16.5125 4.19052 15.7344 4.81526C13.0684 6.95847 14.1709 13.0115 14.182 13.0713L13.9202 13.1042C13.8722 12.8501 12.7881 6.88075 15.55 4.66281C16.3908 3.98427 17.5118 3.7302 18.8688 3.90656C25.5505 4.77341 25.3624 14.0756 25.3587 14.1683Z" fill="#535461"/>
<path d="M100.778 26.3132L100.539 26.2205C100.579 26.1488 104.687 18.936 99.2592 16.4221L99.392 16.2338C105.03 18.8463 100.823 26.2385 100.778 26.3132Z" fill="#535461"/>
<path opacity="0.1" d="M55.3452 67.5365L48.4165 69.049C48.4165 69.049 36.9558 70.3463 41.4877 66.6577C43.0549 65.3873 43.8256 63.2082 44.1611 60.9066C45.9717 63.2082 48.151 62.5536 48.151 62.5536L54.7589 62.449H54.7847C54.5524 65.6832 55.3452 67.5365 55.3452 67.5365Z" fill="black"/>
<path opacity="0.1" d="M68.4984 71.8378C68.0579 72.1045 67.5801 72.3283 67.0751 72.5044L65.4747 62.1321L66.9497 59.119L67.3184 58.8889C70.6481 59.6571 68.9298 69.593 68.4984 71.8378Z" fill="black"/>
<path opacity="0.1" d="M32.6894 54.1391V56.9489L26.8263 69.2642L25.226 67.9669C25.1377 67.8901 25.0563 67.8082 24.9826 67.7218C25.6758 61.3011 32.6894 54.1391 32.6894 54.1391Z" fill="black"/>
<path opacity="0.1" d="M65.3862 107.202C61.6582 107.959 42.1957 111.665 36.4211 108.156C34.1423 106.772 31.4578 106.264 28.9466 106.183C29.158 105.529 29.4292 104.889 29.7579 104.267L58.3984 105.346L60.0873 105.409L64.1435 105.561C64.586 106.105 64.999 106.652 65.3862 107.202Z" fill="black"/>
<path d="M15.2329 3.0397C15.2329 3.0397 19.2302 8.44109 21.8962 3.0397Z" fill="#F8BDC5"/>
<path d="M97.4598 14.1653C97.4598 14.1653 95.8594 20.6488 102.253 17.6237Z" fill="#F8BDC5"/>
<path d="M54.7589 62.8914C58.4464 64.2992 67.075 58.8919 67.075 58.8919C70.8067 59.7557 68.1407 72.2892 68.1407 72.2892L67.9969 72.8093C67.1857 75.7656 66.6952 78.7697 66.2417 81.7768C65.8987 84.0455 63.3433 86.12 63.3433 86.12C58.8114 93.0339 66.0093 106.646 66.0093 106.646C66.0093 106.646 42.8189 111.617 36.4248 107.726C30.0307 103.834 20.4323 106.862 20.4323 106.862C24.9642 103.621 25.226 83.5254 25.226 83.5254V67.9819C25.7607 61.4984 32.9697 54.1541 32.9697 54.1541C35.9196 60.8528 44.1169 61.2952 44.1169 61.2952C45.9348 63.6865 48.1731 63.0139 48.1731 63.0139L54.7589 62.8914Z" fill="#EB6475"/>
<path opacity="0.1" d="M49.9652 36.5091C49.0503 36.348 48.1034 36.348 47.1885 36.5091C44.2902 37.1578 43.3794 40.12 41.1411 41.7461C40.3372 42.344 39.3453 42.7445 38.6152 43.3931C37.3172 44.547 37.0554 46.2567 37.3319 47.8021C37.6085 49.3475 38.346 50.8122 38.8069 52.3277C39.2621 53.8447 39.4348 55.4084 39.3195 56.9669C39.3297 57.4842 39.1584 57.9932 38.8254 58.4345C38.2907 59.0324 37.3061 59.2207 36.6129 59.6989C34.4963 61.1756 36.2441 64.2394 34.6917 66.1256C34.0243 66.9416 32.7742 67.4797 32.5198 68.4362C32.3391 69.1147 32.7226 69.7992 33.0987 70.424C34.087 72.068 35.1121 73.7569 36.7862 74.9824C38.4603 76.208 40.529 76.8237 42.5866 77.4485C43.2098 77.6368 43.9915 77.8012 44.4672 77.4275C45.0535 76.9612 44.611 76.1721 44.2054 75.5952C43.5637 74.6985 43.0623 73.6164 43.4384 72.6061C43.8145 71.5957 45.0203 70.9262 45.8315 70.0832C47.9223 67.9011 47.2365 64.7685 46.2003 62.1381C45.7615 61.0291 45.2674 59.8484 45.6398 58.7215C45.7983 58.2372 46.1118 57.7978 46.3109 57.3226C47.1959 55.2062 45.7098 52.8837 46.145 50.6777C46.3712 49.8163 46.7435 48.9844 47.2512 48.2057L49.5928 44.1255C49.8284 43.6344 50.1804 43.1856 50.6289 42.8043C51.3565 42.33 52.279 42.0971 53.2102 42.1527C54.1594 42.1699 55.0943 42.3433 55.9583 42.6624C56.8223 42.9815 57.5973 43.4396 58.2362 44.0089C60.7436 46.2687 60.5851 49.6883 60.2827 52.7013L60.0651 54.8774C59.9066 56.4438 59.6964 58.1147 58.4795 59.3343C57.5319 60.2788 56.0016 60.9215 55.6107 62.0992C55.2714 63.1125 55.9094 64.2125 55.5738 65.2259C55.0723 66.7414 52.764 67.2884 51.5434 68.5139C51.0301 69.0466 50.7266 69.6922 50.6727 70.3667C50.6188 71.0413 50.8168 71.7133 51.241 72.2952C51.7057 72.893 52.4468 73.4908 52.3473 74.1933C52.2625 74.7582 51.6356 75.2156 51.6393 75.7835C51.6693 76.0376 51.7935 76.2784 51.9956 76.4742C52.1976 76.67 52.4681 76.8117 52.7714 76.8805C53.3818 77.0087 54.0183 77.0331 54.6409 76.9523L61.2525 76.468C61.6665 76.4667 62.0726 76.3759 62.4288 76.205C62.8898 75.936 63.0409 75.4398 63.1036 74.9824C63.3691 73.0753 62.7349 70.9919 63.9112 69.324C64.2799 68.7889 64.822 68.3435 65.2313 67.8294C67.488 64.9598 65.2128 61.068 66.4408 57.8128C67.0234 56.2674 68.3804 54.9402 68.7418 53.353C69.2211 51.2367 67.8605 49.1682 67.3331 47.0758C66.7911 44.9146 67.0824 42.5353 65.659 40.6551C64.5712 39.2203 62.6242 38.3265 60.6109 37.917C58.7672 37.5404 56.9234 37.6749 55.0797 37.5135C53.3171 37.3491 51.6798 36.7333 49.9652 36.5091Z" fill="black"/>
<path d="M49.9652 36.0757C49.0503 35.9146 48.1034 35.9146 47.1885 36.0757C44.2902 36.7244 43.3794 39.6866 41.1411 41.3127C40.3372 41.9105 39.3453 42.3111 38.6152 42.9597C37.3172 44.1135 37.0554 45.8233 37.3319 47.3687C37.6085 48.9141 38.346 50.3788 38.8069 51.8943C39.2621 53.4113 39.4348 54.975 39.3195 56.5334C39.3297 57.0507 39.1584 57.5598 38.8254 58.0011C38.2907 58.5989 37.3061 58.7873 36.6129 59.2655C34.4963 60.7422 36.2441 63.806 34.6917 65.6922C34.0243 66.5082 32.7742 67.0463 32.5198 68.0028C32.3391 68.6813 32.7226 69.3659 33.0987 69.9906C34.087 71.6346 35.1121 73.3235 36.7862 74.549C38.4603 75.7746 40.529 76.3903 42.5866 77.0151C43.2098 77.2034 43.9915 77.3678 44.4672 76.9941C45.0535 76.5278 44.611 75.7387 44.2054 75.1618C43.5637 74.2651 43.0623 73.183 43.4384 72.1727C43.8145 71.1623 45.0203 70.4928 45.8315 69.6498C47.9223 67.4677 47.2365 64.3351 46.2003 61.7047C45.7615 60.5957 45.2674 59.415 45.6398 58.2881C45.7983 57.8038 46.1118 57.3644 46.3109 56.8892C47.1959 54.7728 45.7098 52.4503 46.145 50.2443C46.3712 49.3828 46.7435 48.5509 47.2512 47.7723L49.5928 43.6921C49.8284 43.201 50.1804 42.7522 50.6289 42.3709C51.3565 41.8966 52.279 41.6637 53.2102 41.7192C54.1594 41.7365 55.0943 41.9099 55.9583 42.229C56.8223 42.5481 57.5973 43.0062 58.2362 43.5755C60.7436 45.8353 60.5851 49.2549 60.2827 52.2679L60.0651 54.444C59.9066 56.0103 59.6964 57.6813 58.4795 58.9009C57.5319 59.8454 56.0016 60.4881 55.6107 61.6658C55.2714 62.6791 55.9094 63.7791 55.5738 64.7925C55.0723 66.308 52.764 66.855 51.5434 68.0805C51.0301 68.6132 50.7266 69.2588 50.6727 69.9333C50.6188 70.6079 50.8168 71.2799 51.241 71.8618C51.7057 72.4596 52.4468 73.0574 52.3473 73.7599C52.2625 74.3248 51.6356 74.7822 51.6393 75.3501C51.6693 75.6042 51.7935 75.845 51.9956 76.0408C52.1976 76.2367 52.4681 76.3783 52.7714 76.4471C53.3818 76.5753 54.0183 76.5997 54.6409 76.5189L61.2525 76.0346C61.6665 76.0333 62.0726 75.9425 62.4288 75.7716C62.8898 75.5026 63.0409 75.0064 63.1036 74.549C63.3691 72.642 62.7349 70.5585 63.9112 68.8906C64.2799 68.3555 64.822 67.9101 65.2313 67.396C67.488 64.5264 65.2128 60.6346 66.4408 57.3794C67.0234 55.834 68.3804 54.5068 68.7418 52.9196C69.2211 50.8033 67.8605 48.7348 67.3331 46.6424C66.7911 44.4812 67.0824 42.1019 65.659 40.2217C64.5712 38.7869 62.6242 37.8931 60.6109 37.4836C58.7672 37.107 56.9234 37.2415 55.0797 37.0801C53.3171 36.9187 51.6798 36.3029 49.9652 36.0757Z" fill="#774E55"/>
<path opacity="0.1" d="M35.7537 85.576C35.7537 85.576 41.0858 86.8732 48.8147 84.0635H52.8082C52.8082 84.0635 53.0737 87.0884 63.4687 85.7912" fill="black"/>
<g opacity="0.1">
<path opacity="0.1" d="M165.877 193.508C165.877 193.508 163.012 181.734 168.912 173.663C171.415 170.291 172.5 166.351 172.006 162.436C171.753 160.579 171.292 158.745 170.627 156.957" stroke="#535461" stroke-width="2" stroke-miterlimit="10"/>
<path opacity="0.1" d="M174.31 151.851C174.152 153.256 170.549 157.097 170.549 157.097C170.549 157.097 167.872 152.79 168.031 151.385C168.15 150.74 168.57 150.157 169.203 149.754C169.836 149.352 170.635 149.161 171.436 149.22C172.238 149.28 172.98 149.585 173.513 150.075C174.045 150.564 174.326 151.199 174.299 151.851H174.31Z" fill="#069801"/>
<path opacity="0.1" d="M178.614 160.021C177.537 161.13 171.939 162.768 171.939 162.768C171.939 162.768 172.581 157.985 173.658 156.864C174.183 156.354 174.933 156.03 175.749 155.961C176.564 155.892 177.38 156.082 178.025 156.493C178.67 156.904 179.092 157.502 179.202 158.16C179.311 158.819 179.101 159.486 178.614 160.021V160.021Z" fill="#069801"/>
<path opacity="0.1" d="M176.88 173.304C175.262 173.822 169.41 172.946 169.41 172.946C169.41 172.946 172.95 169.06 174.572 168.552C175.343 168.328 176.191 168.355 176.937 168.629C177.684 168.904 178.269 169.402 178.569 170.02C178.87 170.637 178.862 171.326 178.547 171.939C178.233 172.552 177.636 173.042 176.884 173.304H176.88Z" fill="#069801"/>
<path opacity="0.1" d="M172.776 183.109C171.301 183.841 165.339 183.778 165.339 183.778C165.339 183.778 168.019 179.471 169.509 178.739C169.863 178.555 170.259 178.431 170.674 178.373C171.088 178.316 171.512 178.326 171.922 178.403C172.331 178.48 172.717 178.623 173.058 178.823C173.398 179.023 173.685 179.276 173.903 179.568C174.121 179.859 174.265 180.183 174.326 180.52C174.387 180.857 174.365 181.201 174.26 181.531C174.155 181.861 173.97 182.17 173.715 182.441C173.46 182.712 173.141 182.939 172.776 183.109V183.109Z" fill="#069801"/>
<path opacity="0.1" d="M165.32 162.549C166.452 163.623 172.131 165.066 172.131 165.066C172.131 165.066 171.242 160.284 170.11 159.225C169.567 158.71 168.793 158.391 167.959 158.338C167.125 158.286 166.299 158.504 165.663 158.945C165.028 159.385 164.634 160.013 164.569 160.689C164.504 161.365 164.773 162.034 165.317 162.549H165.32Z" fill="#069801"/>
<path opacity="0.1" d="M160.7 174.073C162.175 174.82 168.126 174.823 168.126 174.823C168.126 174.823 165.516 170.489 164.041 169.741C163.332 169.395 162.484 169.289 161.679 169.445C160.875 169.601 160.178 170.007 159.74 170.576C159.301 171.145 159.156 171.83 159.336 172.485C159.516 173.14 160.005 173.711 160.7 174.076V174.073Z" fill="#069801"/>
<path opacity="0.1" d="M158.108 185.772C159.406 186.711 165.272 187.53 165.272 187.53C165.272 187.53 163.606 182.9 162.322 181.961C161.696 181.524 160.883 181.303 160.058 181.347C159.233 181.391 158.462 181.696 157.912 182.196C157.362 182.697 157.076 183.352 157.116 184.021C157.156 184.691 157.519 185.32 158.126 185.775L158.108 185.772Z" fill="#069801"/>
</g>
<defs>
<linearGradient id="paint0_linear" x1="64.3684" y1="211.996" x2="64.3684" y2="0.0236518" gradientUnits="userSpaceOnUse">
<stop stop-color="#808080" stop-opacity="0.25"/>
<stop offset="0.54" stop-color="#808080" stop-opacity="0.12"/>
<stop offset="1" stop-color="#808080" stop-opacity="0.1"/>
</linearGradient>
</defs>
</svg>
