<svg width="174" height="212" viewBox="0 0 174 212" fill="none" xmlns="http://www.w3.org/2000/svg">
<path d="M111.312 14.3836V196.716C111.312 200.53 109.63 204.188 106.638 206.885C103.646 209.583 99.5882 211.098 95.3568 211.099H16.7563C12.5238 211.1 8.46441 209.585 5.47098 206.887C2.47754 204.19 0.795201 200.531 0.793976 196.716V14.3836C0.795209 10.5681 2.47755 6.90933 5.47099 4.21196C8.46442 1.51458 12.5238 -0.000481071 16.7563 1.14584e-07H26.291C25.8229 1.03792 25.6447 2.16361 25.7721 3.27814C25.8996 4.39268 26.3288 5.46192 27.022 6.3919C27.7153 7.32187 28.6513 8.08411 29.7478 8.61161C30.8444 9.1391 32.0679 9.41571 33.3108 9.41711H78.1236C79.3665 9.41572 80.59 9.13912 81.6865 8.61163C82.7831 8.08414 83.7191 7.3219 84.4123 6.39192C85.1056 5.46194 85.5348 4.39269 85.6622 3.27815C85.7897 2.16361 85.6115 1.03792 85.1433 4.65939e-06H95.3568C99.5882 0.000776152 103.646 1.51643 106.638 4.21371C109.63 6.91098 111.312 10.5691 111.312 14.3836Z" fill="#3F3D56"/>
<path d="M44.978 75.5167C44.9777 74.2676 45.3423 73.0405 46.0352 71.9588C46.7281 70.8771 47.7248 69.979 48.9251 69.3548C47.725 68.7299 46.3637 68.4007 44.9778 68.4004C43.5919 68.4002 42.2304 68.7288 41.03 69.3533C39.8297 69.9778 38.833 70.8762 38.1399 71.9581C37.4469 73.04 37.0821 74.2674 37.0821 75.5167C37.0821 76.766 37.4469 77.9934 38.1399 79.0753C38.833 80.1572 39.8297 81.0555 41.03 81.6801C42.2304 82.3046 43.5919 82.6332 44.9778 82.633C46.3637 82.6327 47.725 82.3035 48.9251 81.6785C47.7248 81.0544 46.7281 80.1563 46.0352 79.0746C45.3423 77.9929 44.9777 76.7658 44.978 75.5167Z" fill="white"/>
<path d="M54.902 75.5167C54.9016 74.2676 55.2663 73.0405 55.9591 71.9588C56.652 70.8771 57.6487 69.979 58.849 69.3548C57.649 68.7299 56.2876 68.4007 54.9017 68.4004C53.5158 68.4002 52.1543 68.7288 50.954 69.3533C49.7537 69.9778 48.7569 70.8762 48.0639 71.9581C47.3708 73.04 47.006 74.2674 47.006 75.5167C47.006 76.766 47.3708 77.9934 48.0639 79.0753C48.7569 80.1572 49.7537 81.0555 50.954 81.6801C52.1543 82.3046 53.5158 82.6332 54.9017 82.633C56.2876 82.6327 57.649 82.3035 58.849 81.6785C57.6487 81.0544 56.652 80.1563 55.9591 79.0746C55.2663 77.9929 54.9016 76.7658 54.902 75.5167Z" fill="white"/>
<path d="M64.6003 82.633C68.9601 82.633 72.4944 79.4469 72.4944 75.5167C72.4944 71.5865 68.9601 68.4005 64.6003 68.4005C60.2406 68.4005 56.7063 71.5865 56.7063 75.5167C56.7063 79.4469 60.2406 82.633 64.6003 82.633Z" fill="#069801"/>
<path d="M91.3699 122.089H20.8078V122.685H91.3699V122.089Z" fill="white"/>
<path d="M23.0362 118.37C24.2668 118.37 25.2645 117.47 25.2645 116.361C25.2645 115.252 24.2668 114.352 23.0362 114.352C21.8056 114.352 20.8079 115.252 20.8079 116.361C20.8079 117.47 21.8056 118.37 23.0362 118.37Z" fill="#069801"/>
<path d="M91.3699 142.177H20.8078V142.772H91.3699V142.177Z" fill="white"/>
<path d="M23.0362 138.457C24.2668 138.457 25.2645 137.558 25.2645 136.448C25.2645 135.339 24.2668 134.44 23.0362 134.44C21.8056 134.44 20.8079 135.339 20.8079 136.448C20.8079 137.558 21.8056 138.457 23.0362 138.457Z" fill="#069801"/>
<path d="M77.7928 97.7433H31.7853C31.3473 97.7428 30.9274 97.5858 30.6177 97.3066C30.308 97.0274 30.1338 96.6489 30.1333 96.254V54.7795C30.1338 54.3847 30.308 54.0061 30.6177 53.7269C30.9274 53.4478 31.3473 53.2907 31.7853 53.2902H77.7928C78.2308 53.2907 78.6507 53.4478 78.9604 53.7269C79.2701 54.0061 79.4443 54.3847 79.4448 54.7795V96.254C79.4443 96.6489 79.2701 97.0274 78.9604 97.3066C78.6507 97.5858 78.2308 97.7428 77.7928 97.7433ZM31.7853 53.8859C31.5225 53.8862 31.2705 53.9804 31.0847 54.1479C30.8989 54.3155 30.7944 54.5426 30.7941 54.7795V96.254C30.7944 96.4909 30.8989 96.7181 31.0847 96.8856C31.2705 97.0531 31.5225 97.1473 31.7853 97.1476H77.7928C78.0556 97.1473 78.3075 97.0531 78.4934 96.8856C78.6792 96.7181 78.7837 96.4909 78.784 96.254V54.7795C78.7837 54.5426 78.6792 54.3155 78.4934 54.1479C78.3075 53.9804 78.0556 53.8862 77.7928 53.8859H31.7853Z" fill="white"/>
<path d="M90.0485 155.531H67.8093C67.0794 155.531 66.4877 156.065 66.4877 156.723V163.714C66.4877 164.372 67.0794 164.905 67.8093 164.905H90.0485C90.7784 164.905 91.3701 164.372 91.3701 163.714V156.723C91.3701 156.065 90.7784 155.531 90.0485 155.531Z" fill="#069801"/>
<path d="M152.951 96.8251C152.951 96.8251 152.036 102.047 152.951 102.872C153.866 103.696 147.158 110.568 147.158 110.568L141.67 103.696C141.67 103.696 144.109 100.123 143.194 97.0999L152.951 96.8251Z" fill="#FFB8B8"/>
<path d="M132.83 136.128L128.864 174.333L130.388 204.016L137.705 202.093L138.011 175.432L146.549 152.345L151.731 177.357L151.12 202.643L160.267 202.918L160.878 174.883L161.95 135.728L132.83 136.128Z" fill="#2F2E41"/>
<path d="M151.427 201.818V207.865C151.427 207.865 149.902 212.262 154.78 211.988C159.659 211.713 159.354 209.789 159.354 209.789L157.524 202.368L151.427 201.818Z" fill="#2F2E41"/>
<path d="M137.402 201.818V207.865C137.402 207.865 138.926 212.262 134.048 211.988C129.169 211.713 129.474 209.789 129.474 209.789L131.304 202.368L137.402 201.818Z" fill="#2F2E41"/>
<path d="M147.768 99.8484C151.641 99.8484 154.78 97.0182 154.78 93.5269C154.78 90.0356 151.641 87.2053 147.768 87.2053C143.895 87.2053 140.755 90.0356 140.755 93.5269C140.755 97.0182 143.895 99.8484 147.768 99.8484Z" fill="#FFB8B8"/>
<path d="M147.463 107.544L148.073 104.796H149.597L152.545 100.973L155.085 103.147L155.695 116.065H139.231L140.755 102.322L142.975 100.973C142.975 100.973 142.585 105.62 146.853 105.62L147.463 107.544Z" fill="#575A89"/>
<path d="M141.06 104.521C141.06 104.521 143.585 107.402 147.353 107.198C151.122 106.995 154.78 104.246 154.78 104.246L159.963 139.977C159.963 139.977 154.171 140.526 152.341 137.778L138.316 137.503L138.621 104.246L141.06 104.521Z" fill="#D0CDE1"/>
<path d="M143.119 100.499L129.779 106.445L133.133 123.486C133.133 123.486 134.353 129.807 133.133 132.281C131.914 134.755 130.694 151.246 130.694 151.246C130.694 151.246 144.414 152.62 142.585 133.105C140.755 113.591 143.119 100.499 143.119 100.499Z" fill="#2F2E41"/>
<path d="M134.962 141.626L136.792 143.275C136.792 143.275 142.28 151.795 144.719 148.772C147.158 145.749 140.45 140.526 140.45 140.526L137.402 138.328L134.962 141.626Z" fill="#FFB8B8"/>
<path d="M152.552 100.499L165.756 106.445L161.183 126.784C161.183 126.784 161.488 133.38 163.012 136.953C164.537 140.526 163.927 150.971 163.927 150.971C163.927 150.971 162.098 157.292 158.134 141.626C154.171 125.959 152.552 100.499 152.552 100.499Z" fill="#2F2E41"/>
<path d="M162.708 131.731H159.964C159.964 131.731 150.817 130.632 151.427 133.93C152.036 137.228 160.573 136.404 160.573 136.404L163.927 136.129L162.708 131.731Z" fill="#FFB8B8"/>
<path d="M131.609 105.62L129.474 106.445C129.474 106.445 127.34 110.568 127.035 111.942C126.73 113.316 123.072 129.807 123.986 131.731C124.901 133.655 134.048 143.825 134.048 143.825L139.231 138.877L131.609 129.532L133.743 117.714L131.609 105.62Z" fill="#2F2E41"/>
<path d="M161.183 105.895L165.217 106.202L166.061 106.445C166.061 106.445 174.598 127.334 172.769 130.632C170.94 133.93 163.012 139.977 163.012 139.977L160.878 131.456L164.842 128.158L160.878 117.164L161.183 105.895Z" fill="#2F2E41"/>
<path d="M153.701 88.6524C153.701 88.6524 155.535 85.5491 151.499 85.267C151.499 85.267 147.83 83.2921 144.895 85.5491C144.895 85.5491 142.326 84.9848 141.593 86.6776C141.593 86.6776 141.226 85.8312 142.326 85.267C142.326 85.267 139.758 84.7027 139.758 87.5239C139.758 87.5239 138.657 90.3451 139.758 92.8842C140.859 95.4233 141.226 95.7054 141.226 95.7054C141.226 95.7054 139.417 90.382 143.82 90.0999C148.223 89.8178 153.15 87.3829 153.517 90.4862C153.884 93.5895 154.618 94.4359 154.618 94.4359C154.618 94.4359 157.92 89.9219 153.701 88.6524Z" fill="#2F2E41"/>
</svg>
