<svg width="173" height="212" viewBox="0 0 173 212" fill="none" xmlns="http://www.w3.org/2000/svg">
<path d="M123.256 80.3392C123.256 80.3392 124.215 69.2281 127.298 69.1698L129.553 79.4212L128.036 81.698C128.036 81.698 124.779 81.9275 123.256 80.3392Z" fill="#65617D"/>
<path opacity="0.1" d="M129.546 79.4066L128.036 81.6981C128.036 81.6981 125.738 81.8583 124.096 80.9695C123.807 80.8211 123.526 80.61 123.256 80.3392C123.256 80.3392 123.256 80.2773 123.272 80.1607C123.271 80.1462 123.271 80.1316 123.272 80.117C123.414 78.723 123.609 77.358 123.856 76.0369C123.95 75.5378 124.058 75.0241 124.174 74.5105C124.625 72.5906 125.26 70.7072 126.129 69.7746C126.45 69.427 126.799 69.225 127.156 69.1808H127.248H127.293L127.344 69.4066L128.105 72.8711L129.546 79.4066Z" fill="black"/>
<path d="M155.15 125.567C155.15 125.567 158.389 124.882 158.674 125.396C158.96 125.909 160.799 128.547 161.889 126.886C162.979 125.224 162.252 119.439 162.252 119.21C162.252 118.98 162.148 110.791 162.148 110.791L160.204 105.006L157.768 94.871L152.793 93.7781L152.921 109.873L152.897 118.121L155.15 125.567Z" fill="#65617D"/>
<path opacity="0.1" d="M155.15 125.567C155.15 125.567 158.389 124.882 158.674 125.396C158.96 125.909 160.799 128.547 161.889 126.886C162.979 125.224 162.252 119.439 162.252 119.21C162.252 118.98 162.148 110.791 162.148 110.791L160.204 105.006L157.768 94.871L152.793 93.7781L152.921 109.873L152.897 118.121L155.15 125.567Z" fill="black"/>
<path d="M126.643 68.8711C126.643 68.8711 126.388 75.8583 124.409 75.9676C124.409 75.9676 123.852 75.239 123.101 73.9822C121.37 71.1225 118.625 65.6216 119.383 60.5032C120.471 53.1735 125.758 66.6963 125.758 66.6963L126.165 67.7017L126.643 68.8711Z" fill="#A5636D"/>
<path opacity="0.1" d="M126.643 68.8711C126.643 68.8711 126.388 75.8583 124.409 75.9676C124.409 75.9676 123.852 75.239 123.101 73.9822L122.936 73.505C123.27 73.8921 123.639 74.1123 124.016 74.1498C124.51 74.1716 125.067 73.7855 125.425 72.1862C125.632 71.287 125.814 70.3612 125.971 69.4139C126.064 68.8579 126.13 68.2815 126.168 67.6944L126.643 68.8711Z" fill="black"/>
<path d="M125.788 81.5268L125.344 80.2663L123.861 76.0223L123.091 73.8547C123.425 74.2402 123.793 74.4591 124.169 74.4959C124.663 74.5214 125.221 74.1316 125.578 72.5323C125.786 71.6338 125.968 70.708 126.124 69.76C126.37 68.2154 126.365 67.4212 126.277 67.1516C126.19 66.8821 126.828 68.1899 127.134 68.8347L127.146 68.8566L127.288 69.1553L127.342 69.3884L128.092 72.7072C128.092 72.7072 128.092 72.7545 128.092 72.8456C128.161 73.8984 128.414 80.5796 125.788 81.5268Z" fill="#E7EFFD"/>
<path d="M154.425 36.1098L150.589 45.1626C150.589 45.1626 145.666 40.7911 146.184 39.3339C146.385 38.7583 146.349 36.9404 146.237 34.9332C146.055 31.7601 145.666 28.1062 145.666 28.1062C145.666 28.1062 154.27 25.0133 153.543 28.2228C153.279 29.3922 153.324 30.7729 153.488 32.0261C153.7 33.4888 154.016 34.8675 154.425 36.1098Z" fill="#A5636D"/>
<path opacity="0.1" d="M153.543 28.2082C153.279 29.3776 153.152 29.4906 153.317 30.7583C152.193 33.425 150.762 36.343 148.983 36.343C148.03 36.3469 147.09 35.8605 146.237 34.9222C146.055 31.7492 145.666 28.0953 145.666 28.0953C145.666 28.0953 154.27 24.9988 153.543 28.2082Z" fill="black"/>
<path d="M155.152 22.3649C155.152 25.9803 154.502 29.4477 153.345 32.0042C152.188 34.5607 150.619 35.9969 148.983 35.9969C147.347 35.9969 145.778 34.5607 144.621 32.0042C143.464 29.4477 142.815 25.9803 142.815 22.3649C142.815 22.2993 142.815 22.2338 142.815 22.1682C142.85 18.5882 143.521 15.1829 144.684 12.688C145.846 10.1931 147.406 8.80899 149.026 8.83483C150.646 8.86067 152.197 10.2943 153.343 12.8261C154.489 15.3578 155.138 18.7842 155.15 22.3649H155.152Z" fill="#A5636D"/>
<path opacity="0.1" d="M156.044 112.288C155.219 112.288 152.506 112.354 149.466 112.459H149.428L148.424 112.496H148.393C144.788 112.623 141.235 111.068 139.809 111.363C136.776 111.993 140.897 105.17 140.897 105.17C143.157 106.381 145.481 106.901 147.804 106.714L148.677 106.612C151.431 106.27 154.201 105.698 155.648 104.736C155.748 106.514 155.895 109.09 156.044 112.288Z" fill="black"/>
<path d="M156.044 111.946C155.219 111.946 152.506 112.008 149.466 112.117H149.428L148.424 112.153H148.393C144.788 112.281 141.235 110.725 139.809 111.02C136.776 111.647 140.897 104.827 140.897 104.827C143.157 106.039 145.481 106.557 147.804 106.368L148.677 106.27C151.431 105.927 154.201 105.352 155.648 104.394C155.748 106.172 155.895 108.754 156.044 111.946Z" fill="#5F5D7E"/>
<path opacity="0.1" d="M147.323 39.9022L142.554 44.8275L138.876 107.698C138.876 107.698 141.052 105.512 142.297 106.896C143.542 108.281 147.376 107.013 147.376 107.013C147.376 107.013 150.178 106.649 150.589 107.355C150.999 108.062 155.877 104.492 155.877 104.492C155.877 104.492 156.757 100.139 156.083 99.4539C155.409 98.769 156.291 91.9967 156.291 91.9967L155.877 46.638L155.053 40.8093L152.824 37.8329L150.544 41.8402L149.456 42.1863L147.323 39.9022Z" fill="black"/>
<path d="M147.323 39.2027L142.556 44.128L138.876 107.013C138.876 107.013 141.052 104.827 142.297 106.212C143.542 107.596 147.376 106.325 147.376 106.325C147.376 106.325 150.178 105.982 150.589 106.667C150.999 107.352 155.877 103.804 155.877 103.804C155.877 103.804 156.757 99.4539 156.083 98.7654C155.409 98.0768 156.291 91.3191 156.291 91.3191L155.877 45.9604L155.053 40.1317L152.824 37.1517L150.544 41.159L149.456 41.5014L147.323 39.2027Z" fill="#E7EFFD"/>
<path opacity="0.1" d="M147.246 42.1244C147.246 42.1244 148.62 45.731 148.594 46.4778C148.568 47.2246 148.517 48.9951 148.517 48.9951L147.488 53.6362C147.488 53.6362 146.918 59.4213 146.918 60.6234C146.918 61.8256 146.011 72.2482 146.011 72.2482L144.923 88.2773L143.548 109.297L144.948 114.623L146.606 111.53L148.807 74.0806L149.273 66.6926C149.273 66.6926 149.768 53.4067 149.768 52.0333C149.768 50.6599 149.483 47.0497 149.483 47.0497C149.483 47.0497 149.821 43.6144 151.22 42.8129C152.62 42.0115 151.116 42.6381 151.116 42.6381L150.313 41.2064L149.613 41.8366C149.613 41.8366 147.661 40.5215 147.246 42.1244Z" fill="black"/>
<path d="M147.091 41.7819C147.091 41.7819 148.464 45.3885 148.439 46.1316C148.414 46.8748 148.36 48.6526 148.36 48.6526L147.323 53.2937C147.323 53.2937 146.753 59.0751 146.753 60.2773C146.753 61.4795 145.846 71.9057 145.846 71.9057L144.756 87.9348L143.383 108.951L144.783 114.277L146.441 111.184L148.642 73.7381L149.108 66.3501C149.108 66.3501 149.603 53.0642 149.603 51.6872C149.603 50.3101 149.318 46.7072 149.318 46.7072C149.318 46.7072 149.647 43.2683 151.054 42.4668C152.46 41.6653 150.951 42.2956 150.951 42.2956L150.147 40.8639L149.448 41.4941C149.448 41.4941 147.506 40.1754 147.091 41.7819Z" fill="#069801"/>
<path opacity="0.1" d="M146.184 35.7674C146.184 35.7674 145.976 36.1099 145.925 38.4013C145.874 40.6927 145.147 45.8475 145.147 45.8475C145.147 45.8475 147.842 41.7237 149.191 42.1827L146.184 35.7674Z" fill="black"/>
<path d="M146.184 35.0789C146.184 35.0789 145.976 35.4249 145.925 37.7127C145.874 40.0005 145.147 45.159 145.147 45.159C145.147 45.159 147.842 41.0351 149.191 41.4941L146.184 35.0789Z" fill="#E7EFFD"/>
<path opacity="0.1" d="M153.544 33.935L149.301 42.1827C149.301 42.1827 152.878 46.8785 153.345 48.0115C153.811 49.1444 154.278 36.7874 154.278 36.7874L153.544 33.935Z" fill="black"/>
<path d="M153.699 33.2465L149.45 41.4942C149.45 41.4942 153.025 46.19 153.492 47.3229C153.958 48.4559 154.425 36.0953 154.425 36.0953L153.699 33.2465Z" fill="#E7EFFD"/>
<path opacity="0.1" d="M146.334 35.7674C146.334 35.7674 145.868 35.2501 145.427 36.7401C144.987 38.2301 144.158 38.9259 144.158 38.9259C144.158 38.9259 139.44 40.5871 139.259 41.9605L137.056 42.2446C137.056 42.2446 136.278 42.4523 136.206 46.0953C136.133 49.7382 135.711 50.0442 135.711 50.0442C135.711 50.0442 134.803 53.5961 134.887 55.4286C134.971 57.261 134.187 58.179 134.187 58.179L137.432 76.7728C137.432 76.7728 137.536 84.4485 136.938 87.2536C136.339 90.0587 135.227 102.489 135.227 102.489C135.227 102.489 135.693 102.259 135.667 102.948C135.64 103.636 135.096 111.137 135.096 111.137C135.096 111.137 134.942 114.113 134.683 115.144C134.424 116.175 134.398 121.56 134.398 121.56L133.971 125.454C133.971 125.454 134.96 130.321 136.46 129.632C137.96 128.944 140.683 115.946 140.683 115.946L142.419 101.917L143.767 88.0551L144.156 78.6635L144.778 57.873L145.685 44.1281C145.685 44.1281 146.702 36.7401 146.334 35.7674Z" fill="black"/>
<path d="M146.184 35.0789C146.184 35.0789 145.718 34.5652 145.277 36.0552C144.837 37.5452 144.006 38.241 144.006 38.241C144.006 38.241 139.29 39.9022 139.109 41.2756L136.906 41.5634C136.906 41.5634 136.128 41.7929 136.051 45.3994C135.973 49.006 135.556 49.3521 135.556 49.3521C135.556 49.3521 134.65 52.904 134.732 54.7364C134.815 56.5688 134.033 57.4832 134.033 57.4832L137.267 76.0842C137.267 76.0842 137.371 83.76 136.773 86.5651C136.175 89.3701 135.064 101.8 135.064 101.8C135.064 101.8 135.53 101.57 135.504 102.259C135.477 102.948 134.933 110.448 134.933 110.448C134.933 110.448 134.778 113.425 134.52 114.456C134.261 115.487 134.234 120.871 134.234 120.871L133.822 124.784C133.822 124.784 134.811 129.651 136.31 128.966C137.808 128.281 140.535 115.275 140.535 115.275L142.271 101.246L143.619 87.4029L144.006 78.0113L144.63 57.2245L145.536 43.4796C145.536 43.4796 146.547 36.0552 146.184 35.0789Z" fill="#65617D"/>
<path opacity="0.1" d="M129.546 79.4066L128.036 81.698C128.036 81.698 125.738 81.8583 124.096 80.9695L123.259 80.1498L123.094 79.9858L123.267 80.1061C124.134 80.6744 124.812 80.6634 125.341 80.27C127.469 78.6889 127.233 70.9258 127.154 69.1699C127.154 68.995 127.141 68.8821 127.138 68.8383C127.137 68.8311 127.137 68.8237 127.138 68.8165L127.151 68.8602C127.179 68.9672 127.212 69.0684 127.248 69.1626C127.278 69.241 127.31 69.3152 127.344 69.3848V69.3848L128.094 72.7035C128.094 72.7035 128.094 72.7509 128.094 72.842L129.546 79.4066Z" fill="black"/>
<path d="M134.755 57.0242L134.03 57.4832L133.926 60.7619C133.926 60.7619 133.07 60.4777 132.838 62.7108C132.606 64.944 132.19 65.9895 132.19 65.9895C132.19 65.9895 130.764 68.6234 130.687 70.8565L129.805 72.0587C129.805 72.0587 127.757 71.0278 127.291 69.1953C127.291 69.1953 128.224 83.9713 123.249 80.3647C123.249 80.3647 128.821 85.749 129.08 86.4922C129.338 87.2354 131.049 89.4066 132.604 87.5851C134.158 85.7636 134.496 82.8893 134.496 82.8893C134.496 82.8893 136 78.2518 136.051 77.5633C136.102 76.8747 137.269 76.0733 137.269 76.0733L139.498 64.1644L134.755 57.0242Z" fill="#65617D"/>
<path opacity="0.1" d="M152.948 40.8057L153.699 33.2465C153.699 33.2465 154.029 35.7091 154.374 36.2811C154.718 36.853 155.488 38.1718 155.488 38.1718C155.488 38.1718 156.602 39.3193 156.99 39.3193C157.377 39.3193 159.479 40.5215 159.738 41.1408C159.997 41.7601 161.033 41.312 161.033 41.312C161.033 41.312 161.889 41.9423 162.641 42.343C163.392 42.7437 163.755 45.4942 163.598 46.5798C163.536 47.121 163.536 47.6885 163.6 48.2293C163.663 48.77 163.788 49.2666 163.961 49.6727C164.273 50.3612 164.428 52.587 164.428 52.587C164.809 52.8617 165.126 53.4588 165.31 54.2482C165.568 55.5087 165.491 58.2555 165.491 58.2555L161.63 70.2773C161.63 70.2773 161.681 74.9148 161.526 75.9458C161.371 76.9768 162.07 94.5031 162.07 94.5031L162.873 124.627C162.873 124.627 161.812 126.631 161.577 126.86C161.343 127.09 161.111 116.208 161.111 115.807C161.111 115.407 155.125 95.9894 155.125 95.9894C155.125 95.9894 154.321 93.1261 154.321 92.4958C154.321 91.8656 153.569 86.0842 153.569 86.0842L152.433 74.9403L152.948 40.8057Z" fill="black"/>
<path d="M165.812 57.618C165.812 58.0114 165.802 58.2737 165.802 58.2737L161.943 70.2955C161.943 70.2955 161.996 74.9367 161.841 75.9676C161.75 76.5651 161.948 82.729 162.131 87.7891C162.261 91.4321 162.385 94.5213 162.385 94.5213L162.725 107.301L163.186 124.649C163.186 124.649 162.125 126.652 161.892 126.882C161.66 127.111 161.426 116.23 161.426 115.825C161.426 115.421 155.435 96.004 155.435 96.004C155.435 96.004 154.632 93.137 154.632 92.5067C154.632 91.8765 153.881 86.0915 153.881 86.0915L152.742 74.9257L153.259 40.791L153.699 33.2319C153.699 33.2319 154.347 35.6982 154.688 36.2665C155.03 36.8348 155.801 38.1572 155.801 38.1572C155.801 38.1572 156.916 39.3047 157.305 39.3047C157.694 39.3047 159.792 40.5069 160.053 41.1262C160.313 41.7455 161.348 41.2974 161.348 41.2974C161.348 41.2974 162.202 41.9277 162.954 42.3284C163.706 42.7291 164.068 45.4796 163.913 46.5652C163.85 47.1064 163.851 47.6741 163.914 48.215C163.977 48.756 164.102 49.2525 164.276 49.6581C164.586 50.3429 164.742 52.5724 164.742 52.5724C165.124 52.8481 165.441 53.445 165.624 54.2336C165.801 55.1371 165.817 56.7254 165.812 57.618Z" fill="#65617D"/>
<path opacity="0.1" d="M137.807 210.951C137.403 211.315 136.997 211.654 136.592 212C135.321 211.18 134.134 210.215 134.134 210.215C135.363 210.312 136.589 210.558 137.807 210.951V210.951Z" fill="black"/>
<path opacity="0.1" d="M150.071 180.375C150.071 180.375 153.155 181.978 153.337 183.067L150.071 180.375Z" fill="black"/>
<path opacity="0.1" d="M138.176 185.301C138.176 185.301 136.569 186.332 138.125 188.394C139.681 190.456 138.176 185.301 138.176 185.301Z" fill="black"/>
<path opacity="0.1" d="M145.302 130.248C145.483 130.248 148.309 128.186 149.293 129.104C150.277 130.022 151.497 130.018 151.497 130.018L145.302 130.248Z" fill="black"/>
<path opacity="0.1" d="M145.675 136.805L145.647 137.374L143.23 151.341C143.23 151.341 142.841 155.578 142.503 157.982C142.291 159.616 142.123 161.277 141.999 162.955L144.142 133.643L145.675 136.805Z" fill="black"/>
<path d="M149.428 112.117L148.424 112.153H148.393L147.804 106.379C148.093 106.35 148.385 106.317 148.677 106.277L149.428 112.117Z" fill="#3F3D56"/>
<path d="M161.655 105.111L161.01 106.288L158.862 110.212C158.862 110.212 153.032 117.086 151.426 110.554C150.01 104.802 156.62 100.696 158.213 99.8C158.429 99.6798 158.552 99.6179 158.552 99.6179L161.655 105.111Z" fill="#A5636D"/>
<path opacity="0.1" d="M136.752 48.8238C136.752 48.8238 137.891 49.9714 138.149 51.5743C138.408 53.1772 136.752 48.8238 136.752 48.8238Z" fill="black"/>
<path opacity="0.1" d="M133.225 66.0077C133.225 66.0077 131.567 70.474 132.236 72.2008C132.906 73.9275 133.225 66.0077 133.225 66.0077Z" fill="black"/>
<path opacity="0.1" d="M162.873 51.3448C162.873 51.3448 161.319 51.6872 161.266 54.6672L162.873 51.3448Z" fill="black"/>
<path opacity="0.1" d="M148.464 98.3064C148.629 97.9639 152.196 86.2846 153.025 87.3119L148.464 98.3064Z" fill="black"/>
<path opacity="0.1" d="M155.152 22.3649C155.153 24.6098 154.902 26.8202 154.421 28.7984H154.375C153.985 28.6162 153.782 27.6108 153.483 26.9769C153.3 26.5911 153.066 26.3419 152.815 26.2642C152.564 26.1864 152.309 26.2841 152.084 26.5434C151.857 26.8431 151.672 27.2772 151.55 27.7967C151.429 28.3162 151.376 28.9003 151.396 29.4833C151.199 27.6618 151.261 25.6982 151.067 23.8621C150.872 22.0261 150.294 20.1645 149.499 20.1317C149.156 20.1317 148.757 20.4123 148.51 19.8439C148.36 19.5015 148.33 18.9623 148.218 18.547C147.65 16.5179 145.922 17.5452 145.216 18.5871C144.511 19.629 143.692 21.2902 142.815 22.1827C142.85 18.6028 143.521 15.1974 144.684 12.7025C145.846 10.2076 147.406 8.82355 149.026 8.84938C150.646 8.87522 152.197 10.3089 153.343 12.8406C154.489 15.3723 155.138 18.7988 155.15 22.3795L155.152 22.3649Z" fill="black"/>
<path d="M148.22 18.19C148.332 18.6053 148.362 19.1445 148.512 19.4869C148.759 20.0516 149.158 19.7601 149.501 19.7747C150.295 19.8039 150.876 21.6654 151.068 23.5015C151.261 25.3375 151.199 27.2902 151.398 29.1226C151.378 28.5403 151.431 27.9568 151.553 27.4381C151.674 26.9193 151.859 26.4858 152.085 26.1863C152.31 25.9268 152.565 25.829 152.816 25.9068C153.067 25.9845 153.3 26.2339 153.483 26.6199C153.782 27.2465 153.978 28.2519 154.377 28.4413C154.776 28.6308 155.145 27.7929 155.287 26.8822C155.429 25.9714 155.417 24.9732 155.509 24.0297C155.686 22.241 156.213 20.7765 156.498 19.0789C156.846 17.012 156.837 14.7344 156.472 12.6818C156.278 11.589 155.989 10.6381 155.791 9.56346C155.495 7.93141 155.415 6.0917 155.053 4.53615C154.443 1.93143 153.005 0.630887 151.825 1.62178C151.261 2.09172 150.772 2.99882 150.2 3.40319C149.435 3.94599 148.615 3.53798 147.823 3.2939C147.03 3.04982 146.153 3.02797 145.515 4.17914C144.781 5.50519 144.58 7.99698 143.891 9.45417C143.601 10.0662 143.241 10.456 142.937 11.0206C142.632 11.5853 142.368 12.4268 142.402 13.3449C142.449 14.5325 142.974 15.6108 142.78 16.7073C142.71 17.0264 142.612 17.3113 142.491 17.5452C141.915 18.8838 141.485 20.4981 141.237 22.2629C142.625 23.221 144.125 19.8403 145.211 18.2556C145.925 17.1882 147.653 16.1572 148.22 18.19Z" fill="#4C3E42"/>
<path opacity="0.1" d="M161.655 105.111L161.01 106.288C160.442 104.193 158.106 100.011 158.106 100.011L158.206 99.7964C158.422 99.6762 158.546 99.6142 158.546 99.6142L161.655 105.111Z" fill="black"/>
<path d="M162.278 103.002C162.278 103.002 162.046 104.277 161.806 105.381C161.567 106.485 161.312 107.483 161.292 106.671C161.266 105.064 158.261 99.6798 158.261 99.6798L158.668 98.8055L159.141 97.7891L162.278 103.002Z" fill="#E7EFFD"/>
<path opacity="0.1" d="M162.382 94.525L162.721 107.305C161.917 104.539 159.706 97.4466 158.285 97.6761L161.732 88.933C161.876 88.5807 162.009 88.2057 162.128 87.811C162.258 91.4466 162.382 94.525 162.382 94.525Z" fill="black"/>
<path opacity="0.1" d="M162.278 103.002C162.278 103.002 162.046 104.277 161.807 105.381C160.903 102.642 159.664 99.4102 158.674 98.8055L159.148 97.7891L162.278 103.002Z" fill="black"/>
<path d="M164.869 56.6599L165.802 58.2628C165.802 58.2628 167.357 58.321 167.512 61.1771C167.667 64.0332 169.093 65.3593 169.093 65.3593C169.093 65.3593 170.156 67.7054 170.156 68.7946C170.156 69.8839 170.959 71.8292 170.959 72.0004C170.959 72.1716 171.737 75.6653 171.633 76.2955C171.529 76.9257 172.457 79.6762 172.177 80.7071C171.943 81.6319 171.735 82.5882 171.556 83.5705C171.556 83.5705 170.337 88.7253 169.714 89.698C169.091 90.6707 166.243 98.8601 166.243 98.8601C166.243 98.8601 163.185 106.649 163.185 109.06C163.185 109.06 160.204 98.0623 158.442 98.3501L161.889 89.5887C161.889 89.5887 162.484 88.157 162.51 87.2973C162.537 86.4375 164.169 82.4849 164.947 82.3137C164.947 82.3137 165.075 79.964 164.739 79.9093C164.403 79.8547 164.118 78.0186 164.118 78.0186C164.118 78.0186 161.836 72.0624 161.81 68.2809C161.783 64.4995 164.869 56.6599 164.869 56.6599Z" fill="#65617D"/>
<path opacity="0.1" d="M166.243 62.1243C166.243 62.1243 164.065 65.6726 164.531 66.8201C164.998 67.9677 166.243 62.1243 166.243 62.1243Z" fill="black"/>
<path opacity="0.1" d="M166.346 76.7727C166.346 76.7727 170.388 73.9093 170.797 76.7727H166.346Z" fill="black"/>
<path opacity="0.1" d="M137.826 61.4249C137.826 61.4249 137.826 74.4813 137.32 75.7709C136.814 77.0605 137.826 61.4249 137.826 61.4249Z" fill="black"/>
<path opacity="0.1" d="M161.188 65.6325L161.94 70.2992C161.94 70.2992 162.238 65.72 161.188 65.6325Z" fill="black"/>
<g opacity="0.1">
<path opacity="0.1" d="M142.872 15.5744C143.062 14.4997 142.566 13.4469 142.5 12.2957C142.435 12.6206 142.406 12.9758 142.417 13.3303C142.45 14.201 142.747 15.0097 142.818 15.8148C142.839 15.7385 142.858 15.6581 142.872 15.5744V15.5744Z" fill="black"/>
<path opacity="0.1" d="M151.466 27.9095C151.279 26.088 151.334 24.19 151.146 22.3868C150.958 20.5835 150.373 18.6855 149.578 18.6564C149.235 18.6564 148.836 18.9332 148.589 18.3686C148.439 18.0261 148.409 17.487 148.297 17.0717C147.73 15.0425 146.003 16.0698 145.296 17.1117C144.236 18.6673 142.78 21.9241 141.42 21.1882C141.356 21.5343 141.295 21.884 141.244 22.2447C142.632 23.2028 144.132 19.8221 145.218 18.2374C145.925 17.1992 147.651 16.1682 148.22 18.201C148.332 18.6163 148.362 19.1554 148.512 19.4979C148.759 20.0625 149.158 19.7711 149.501 19.7857C150.295 19.8148 150.876 21.6764 151.068 23.5124C151.261 25.3485 151.199 27.3011 151.398 29.1336C151.383 28.7197 151.406 28.3035 151.466 27.9095Z" fill="black"/>
<path opacity="0.1" d="M155.363 25.7601C155.221 26.6709 154.852 27.5051 154.453 27.3193C154.054 27.1335 153.859 26.1317 153.561 25.4978C153.377 25.1131 153.143 24.8649 152.892 24.7878C152.641 24.7108 152.386 24.8087 152.161 25.068C151.945 25.3525 151.768 25.7596 151.647 26.2471C151.526 26.7345 151.466 27.2846 151.474 27.8403C151.578 27.1406 151.795 26.5504 152.084 26.1827C152.308 25.9231 152.564 25.8254 152.814 25.9031C153.065 25.9809 153.298 26.2302 153.482 26.6162C153.78 27.2428 153.976 28.2483 154.375 28.4377C154.774 28.6271 155.143 27.7893 155.285 26.8785C155.358 26.3421 155.406 25.7902 155.427 25.2319C155.41 25.4104 155.388 25.5867 155.363 25.7601V25.7601Z" fill="black"/>
<path opacity="0.1" d="M156.581 17.9605C156.289 19.6582 155.757 21.1227 155.592 22.9077C155.556 23.272 155.536 23.6363 155.516 24.0006C155.692 22.2228 156.218 20.762 156.505 19.068C156.635 18.3051 156.716 17.5055 156.744 16.6928C156.705 17.1243 156.65 17.5482 156.581 17.9605V17.9605Z" fill="black"/>
</g>
<path d="M119.129 59.4285C119.165 59.4285 119.194 59.3649 119.194 59.2865C119.194 59.208 119.165 59.1444 119.129 59.1444C119.094 59.1444 119.065 59.208 119.065 59.2865C119.065 59.3649 119.094 59.4285 119.129 59.4285Z" fill="#E6E8EC"/>
<path d="M19.5633 155.332C19.5633 155.332 20.0134 147.715 24.2878 149.613C24.2878 149.613 24.4164 156.17 20.2854 157.077L19.5633 155.332Z" fill="#069801"/>
<path d="M17.3824 147.711C17.3824 147.711 18.2264 140.243 22.4613 142.112C22.4613 142.112 21.5778 148.822 17.6808 149.034L17.3824 147.711Z" fill="#069801"/>
<path d="M13.9273 133.143C13.9273 133.143 14.496 123.733 18.3138 125.474C18.3138 125.474 17.3643 134.079 14.2322 134.48L13.9273 133.143Z" fill="#069801"/>
<path d="M22.3772 162.593C22.3772 162.593 19.3573 161.981 19.6095 171.358C19.6095 171.358 22.3426 172.086 23.0943 164.269L22.3772 162.593Z" fill="#069801"/>
<path d="M19.4166 155.092C19.4166 155.092 15.9433 155.361 16.3934 164.928C16.3934 164.928 19.3276 165.831 20.1337 156.833L19.4166 155.092Z" fill="#069801"/>
<path d="M17.3593 148.338C17.3593 148.338 14.1498 145.336 12.2788 153.937C12.2788 153.937 15.2378 156.414 17.661 149.675L17.3593 148.338Z" fill="#069801"/>
<path d="M40.1401 110.784C39.7525 111.136 39.35 111.403 38.9384 111.578C38.2191 111.875 37.4892 112.028 36.7574 112.033C36.7789 112.459 36.7954 112.856 36.8118 113.217C36.8514 114.208 36.8745 114.889 36.8745 114.889L36.1014 114.773L29.7251 113.811L25.9963 112.59C26.1762 113.124 26.3717 113.632 26.5815 114.11C26.7987 114.618 27.05 115.049 27.3266 115.388C27.3266 115.388 30.6911 121.41 31.273 121.465C31.3554 121.465 31.3818 121.647 31.3686 121.935C32.7846 121.935 37.1877 122.39 35.9662 127.807C35.7641 128.773 35.4078 129.54 34.9656 129.96C33.5528 131.283 31.4214 128.904 30.3235 127.443C30.2163 127.906 30.1141 128.335 30.0235 128.703C29.8372 129.479 29.707 129.993 29.707 129.993L29.5965 129.818L23.939 120.915L22.6993 118.59C22.3352 118.554 21.9746 118.415 21.6262 118.179V118.179L21.4613 118.062C21.4542 118.094 21.4481 118.127 21.4432 118.161C21.3981 118.445 21.3644 118.737 21.3427 119.035C21.3427 119.079 21.3427 119.122 21.3427 119.166C21.3195 119.505 21.3041 119.847 21.2965 120.19C21.2965 120.423 21.2883 120.671 21.2883 120.918C21.2784 125.88 22.1784 133.855 22.1784 133.855C22.1784 133.855 24.511 147.002 23.6835 150.037C23.6408 150.191 23.5848 150.324 23.5186 150.43C23.2269 150.896 23.0521 151.727 22.9614 152.714C22.6532 155.935 23.1939 160.849 23.1939 160.849C23.1939 160.849 23.1444 161.031 23.0604 161.315C22.8785 161.958 22.6734 162.567 22.4471 163.137C22.4125 163.224 22.3762 163.315 22.3383 163.399C22.2363 163.636 22.126 163.855 22.0086 164.055C22.0301 164.197 22.0531 164.343 22.0762 164.499C22.0993 164.656 22.129 164.9 22.1521 165.119C22.3356 166.909 22.2636 168.781 21.946 170.477C21.7299 171.714 21.5902 173.009 21.5306 174.328V174.328C21.4234 176.743 21.4516 179.178 21.6147 181.577C21.5899 181.548 21.5685 181.519 21.5438 181.494C19.7206 179.388 17.9232 177.189 16.1516 174.896C15.6324 174.233 15.1164 173.556 14.6037 172.874C13.9729 172.034 13.3449 171.184 12.7195 170.324C11.8953 169.188 11.0711 168.022 10.2469 166.831L9.86111 166.262L9.71275 166.04C9.50339 165.731 9.29733 165.421 9.08963 165.108C8.23737 162.674 7.4587 160.118 6.7587 157.457C6.64166 156.995 6.53616 156.554 6.44879 156.15V156.128L6.39274 155.862L6.16031 155.68C5.72346 155.341 5.44652 155.104 5.44652 155.104C5.64814 153.479 5.74471 151.798 5.73336 150.113C5.72017 146.834 5.3097 142.463 3.61838 138.958C1.11931 133.738 0.774777 128.583 0.738511 126.605C0.738511 126.467 0.738511 126.343 0.738511 126.241C0.737683 126.074 0.740984 125.907 0.748401 125.742L0.939624 125.337C0.454975 125.122 0 125.024 0 125.024C0 125.024 1.65835 111.763 4.45085 107.337C5.83556 105.152 6.98784 101.509 7.80218 98.3829C9.28772 92.734 10.9559 87.3295 12.7937 82.2117L13.2965 80.8092L13.4432 80.3975L13.4745 80.3137L13.5141 80.1971C13.446 79.9688 13.3767 79.743 13.3064 79.5195L13.2602 79.3702C13.041 78.6416 12.8531 77.913 12.8827 77.0423C12.8827 77.0423 12.8827 77.0241 12.8827 77.0168C12.8827 76.9549 12.8827 76.8966 12.8827 76.831C12.8897 76.6859 12.9019 76.5421 12.919 76.4012C12.9246 76.4244 12.9313 76.4463 12.9388 76.4667C13.1745 74.9512 14.0828 74.2809 14.7521 73.4431C16.3297 71.4831 17.0023 67.1954 17.3402 63.2063C17.6023 60.1025 17.8199 56.6234 18.9079 54.6307C19.6101 53.3484 20.5563 52.9258 21.2668 51.6544C21.6779 50.8517 22.0178 49.8869 22.2691 48.8093C22.4339 48.19 22.5757 47.5488 22.729 46.9295C23.4313 44.1244 24.3544 41.516 25.5759 39.8366C26.7974 38.1572 28.347 37.5051 29.6855 38.6344C30.2015 39.0679 30.6746 39.7273 31.1692 40.2118C31.4745 40.487 31.79 40.704 32.1121 40.8603C33.1193 41.3812 34.1792 41.516 35.1255 42.445C36.6635 43.9532 37.6641 47.2901 38.5773 50.4595C39.0505 52.0989 39.7939 54.4959 40.2159 56.9076C40.2159 56.8202 40.2159 56.74 40.2159 56.6562C40.4194 57.7182 40.5312 58.8549 40.5456 60.0078C40.5539 60.4985 40.53 60.9893 40.4747 61.465C40.3231 62.7036 39.9357 63.4868 39.4494 64.0624L39.3719 64.1462C39.2679 64.2643 39.1612 64.3701 39.0521 64.4631C39.0356 64.6635 39.0175 64.8675 38.9977 65.0642C38.9895 65.148 38.9796 65.2354 38.9697 65.3192C38.9483 65.5232 38.9235 65.7236 38.8971 65.924C38.5448 68.5277 37.8575 70.8489 36.919 72.6052C36.269 73.834 35.5179 74.774 34.7068 75.3738C34.6491 75.4175 34.5881 75.4503 34.5304 75.4904C34.4813 75.7953 34.4113 76.0816 34.3227 76.3392C34.2585 76.5208 34.183 76.6814 34.0985 76.8164C34.0458 76.8953 33.9907 76.9659 33.9336 77.0277C33.9196 77.0472 33.9047 77.063 33.8891 77.0751C33.2957 77.6653 32.483 77.2026 31.911 76.321C31.8813 76.2773 31.8533 76.2263 31.8252 76.1789C31.8252 76.3866 31.8104 76.6052 31.7939 76.831C31.7774 77.0569 31.7659 77.1953 31.7478 77.3848C31.7296 77.5742 31.723 77.6653 31.7115 77.8001C31.7 77.9348 31.6917 78.0259 31.6818 78.1316L31.662 78.3174C31.3355 81.8336 30.7125 85.1826 29.8257 88.1898C29.697 88.6205 29.5578 89.0352 29.4086 89.4321L28.9998 90.8091V90.9949C29.0772 94.1643 28.6058 97.1187 27.9398 99.6615C27.7168 100.505 27.4719 101.318 27.2062 102.099L27.2986 102.219C28.2217 103.381 30.0416 105.447 31.1922 105.272C31.1922 105.272 35.5442 106.514 36.0486 105.891C36.1178 105.804 36.1854 105.924 36.2481 106.182C36.952 105.235 38.5708 103.228 39.8483 102.962C40.7418 102.773 41.4687 103.432 41.6039 105.876C41.7391 108.321 41.0731 109.898 40.1401 110.784Z" fill="url(#paint0_linear)"/>
<path d="M16.3181 160.878C16.5968 161.929 16.763 163.106 16.8041 164.32C16.8453 165.534 16.7602 166.753 16.5555 167.884C16.1549 170.102 16.1104 172.867 16.1516 174.896C15.6324 174.233 15.1164 173.556 14.6037 172.874C13.9729 172.034 13.3449 171.184 12.7195 170.324C11.8953 169.188 11.0711 168.022 10.2469 166.831L9.86111 166.262L9.71275 166.04C9.69978 165.987 9.68371 165.938 9.66494 165.895C9.44405 165.377 8.1566 161.297 7.39171 158.201C7.25324 157.632 7.1329 157.108 7.03729 156.627V156.601C6.87245 155.793 6.79497 155.144 6.84442 154.849C6.90436 154.385 7.00605 153.952 7.14342 153.576C7.28079 153.201 7.45102 152.89 7.64393 152.663C8.59344 151.57 10.1166 152.579 11.6233 154.186C12.9197 155.634 14.1621 157.306 15.339 159.188L15.4725 159.403L15.4857 159.425C15.9802 160.201 16.267 160.714 16.267 160.714C16.267 160.714 16.2885 160.773 16.3181 160.878Z" fill="#FBBEBE"/>
<path opacity="0.05" d="M16.0676 160.394C16.3467 161.445 16.5132 162.624 16.5544 163.839C16.5955 165.055 16.5102 166.275 16.305 167.406C15.9044 169.625 15.8599 172.39 15.9011 174.423C15.3824 173.755 14.8664 173.08 14.3532 172.397C13.7213 171.557 13.0932 170.707 12.469 169.847C11.6447 168.707 10.8205 167.541 10.0045 166.35L9.61878 165.782L9.47042 165.559C9.45705 165.507 9.44101 165.458 9.42262 165.414C9.20172 164.9 7.91427 160.82 7.14939 157.72C7.01092 157.151 6.89058 156.627 6.79497 156.146V156.124C6.63012 155.312 6.55264 154.667 6.6021 154.368C6.66229 153.904 6.76408 153.471 6.90143 153.096C7.03877 152.72 7.20886 152.41 7.4016 152.182C8.35112 151.089 9.8743 152.099 11.381 153.705C12.6773 155.153 13.9198 156.826 15.0966 158.707L15.2302 158.922L15.2433 158.944C15.7379 159.72 16.0247 160.233 16.0247 160.233C16.0247 160.233 16.0379 160.288 16.0676 160.394Z" fill="black"/>
<path d="M22.1372 169.228C22.0893 169.852 22.0113 170.462 21.9048 171.049C21.7222 172.106 21.5966 173.206 21.5306 174.328V174.328C21.4008 176.709 21.4052 179.116 21.5438 181.494C19.7206 179.388 17.9232 177.189 16.1516 174.896C15.6324 174.233 15.1164 173.556 14.6037 172.874C14.4883 170.936 14.3235 169.231 14.1372 168.813C13.8932 168.244 12.5003 163.843 11.6348 160.372C11.5227 159.935 11.4255 159.512 11.3348 159.111V159.093C11.3002 158.933 11.2672 158.78 11.2359 158.627C11.0134 157.57 10.8947 156.747 10.954 156.35C11.0697 155.486 11.3078 154.728 11.6332 154.186C13.0954 151.825 16.1351 155.02 18.4694 158.193L18.5271 158.27C18.9689 158.878 19.3876 159.479 19.7634 160.04L19.9827 160.368C20.9487 161.825 21.5899 162.958 21.5899 162.958C21.7492 163.501 21.8772 164.086 21.9707 164.7C22.0258 165.045 22.0715 165.398 22.1075 165.756C22.2216 166.897 22.2317 168.078 22.1372 169.228V169.228Z" fill="#FBBEBE"/>
<path opacity="0.1" d="M7.39995 158.201C8.59839 159.126 10.3672 160.354 11.3299 160.386C11.4296 160.393 11.5294 160.382 11.6283 160.354V160.354C12.3058 160.15 14.3944 160.477 16.3115 160.86C17.0797 161.009 17.8199 161.166 18.4315 161.304L19.9678 161.669V160.357C19.5409 159.709 19.0447 158.987 18.5139 158.259C16.1714 155.06 13.0937 151.793 11.62 154.171C9.5446 151.956 7.43787 150.893 6.83948 154.834C6.77024 155.348 7.02246 156.652 7.39995 158.201Z" fill="black"/>
<path d="M1.64186 127.669C1.67483 129.632 2.00781 134.729 4.39314 139.876C7.4362 146.434 6.13886 155.862 6.13886 155.862C6.13886 155.862 9.76548 159.009 11.3299 159.093C11.4296 159.1 11.5293 159.089 11.6282 159.06C12.5662 158.773 16.295 159.534 18.438 160.011L19.9744 160.375V132.499L3.16998 123.479L1.64845 126.831C1.63817 127.11 1.63597 127.389 1.64186 127.669V127.669Z" fill="#5C5C8E"/>
<g opacity="0.1">
<path opacity="0.1" d="M19.6991 160.029L19.9744 160.091V160.39L18.4381 160.026C16.9 159.683 14.5493 159.195 12.9981 159.053C14.0713 158.842 17.6237 159.567 19.6991 160.029Z" fill="black"/>
<path opacity="0.1" d="M1.64848 126.849L3.17001 123.498L4.18546 124.04L2.91779 126.849C2.90971 127.128 2.90971 127.408 2.91779 127.687C2.95076 129.651 3.28375 134.743 5.66908 139.895C8.71214 146.452 7.4148 155.876 7.4148 155.876C7.4148 155.876 10.415 158.481 12.1344 159.017C11.9691 159.015 11.8039 159.036 11.6398 159.078C11.5409 159.107 11.4411 159.118 11.3414 159.111C9.77705 159.024 6.15043 155.876 6.15043 155.876C6.15043 155.876 7.44777 146.452 4.40471 139.895C2.00784 134.743 1.67485 129.651 1.64188 127.698C1.63578 127.415 1.63798 127.131 1.64848 126.849Z" fill="black"/>
</g>
<path d="M35.2277 107.982C35.2277 107.982 40.3099 100.193 40.6808 107.203C41.0517 114.212 35.2277 113.228 35.2277 113.228V107.982Z" fill="#FBBEBE"/>
<path d="M26.4644 102.816C26.4644 102.816 29.2124 106.824 30.7339 106.587C30.7339 106.587 34.8881 107.818 35.3711 107.202C35.8541 106.587 36.1508 116.099 36.1508 116.099L29.3245 115.031L24.9462 113.556C24.9462 113.556 22.757 110.605 22.757 108.062C22.757 105.519 26.4644 102.816 26.4644 102.816Z" fill="#F7CDDD"/>
<path d="M26.4644 102.816C26.4644 102.816 29.2124 106.824 30.7339 106.587C30.7339 106.587 34.8881 107.818 35.3711 107.202C35.8541 106.587 36.1508 116.099 36.1508 116.099L29.3245 115.031L24.9462 113.556C24.9462 113.556 22.757 110.605 22.757 108.062C22.757 105.519 26.4644 102.816 26.4644 102.816Z" fill="#069801"/>
<path d="M30.4933 123.086C30.4933 123.086 36.6734 122.521 35.2886 128.882C33.9039 135.242 29.2223 127.519 29.2223 127.519L30.4933 123.086Z" fill="#FBBEBE"/>
<path d="M24.2786 109.538C24.2786 109.538 29.2866 101.257 28.5827 91.1734C27.8788 81.0897 24.2786 98.882 24.2786 98.882V109.538Z" fill="#5C5C8E"/>
<path d="M25.6666 63.8219C25.6675 67.4493 26.3058 70.934 27.4469 73.5414C28.0623 74.9456 28.8034 76.0511 29.6229 76.7873C29.8871 77.0315 30.1593 77.2313 30.4372 77.3848C30.7324 77.5531 31.0326 77.6749 31.3356 77.7491C31.5532 77.7964 31.7725 77.8219 31.995 77.8219C32.7034 77.8187 33.4063 77.5489 34.0737 77.0241C35.1716 76.1813 36.1433 74.6869 36.8823 72.7045C37.6213 70.7221 38.0991 68.3284 38.2633 65.7857C38.4274 63.2431 38.2717 60.6496 37.8131 58.2895C37.3545 55.9295 36.6107 53.8941 35.6633 52.4063C34.7159 50.9186 33.6014 50.0359 32.4421 49.8552C31.2827 49.6745 30.1233 50.2026 29.0907 51.3817C28.0582 52.5608 27.1925 54.3453 26.5885 56.5396C25.9845 58.734 25.6655 61.2535 25.6666 63.8219V63.8219Z" fill="#FBBEBE"/>
<path opacity="0.1" d="M1.64186 127.669C2.20893 127.898 2.90952 128.321 2.90952 128.969C2.90952 130.062 10.8221 135.967 10.8221 135.967C10.8221 135.967 10.5254 137.494 11.3167 140.12C12.1079 142.747 18.5419 157.829 18.5419 157.829L18.5205 158.273L18.438 160.011L18.0457 168.321C18.0457 168.321 20.5184 166.354 21.3097 166.572C21.5652 166.641 21.8438 166.281 22.0993 165.756C22.0052 164.763 21.8304 163.817 21.5833 162.962C21.5833 162.962 20.9421 161.847 19.9744 160.372V132.499L3.16998 123.479L1.64845 126.831C1.63817 127.11 1.63597 127.389 1.64186 127.669V127.669Z" fill="black"/>
<path d="M0.929733 126.128C0.929733 126.128 2.90789 126.561 2.90789 127.658C2.90789 128.754 10.8205 134.656 10.8205 134.656C10.8205 134.656 10.5238 136.182 11.315 138.809C12.1063 141.436 18.5403 156.517 18.5403 156.517L18.0457 167.009C18.0457 167.009 20.5184 165.042 21.3097 165.261C21.6641 165.359 22.0548 164.634 22.3779 163.803C22.6459 163.103 22.8848 162.351 23.0917 161.556C23.0917 161.556 22.1998 153.242 23.3884 151.275C24.5769 149.308 22.1026 134.882 22.1026 134.882C22.1026 134.882 20.9833 124.623 21.313 120.223C21.3339 119.929 21.3659 119.641 21.4086 119.359C21.4086 119.326 21.4168 119.294 21.4234 119.261C22.129 115.057 29.7185 79.7891 29.7185 79.7891C29.7136 78.7888 29.6817 77.7901 29.6229 76.7982C29.608 76.5214 29.5882 76.2336 29.5635 75.9458C29.5252 75.4215 29.474 74.9022 29.4102 74.3902C29.3674 74.0551 29.3212 73.7345 29.2668 73.4285C29.0327 72.0952 28.6734 71.0715 28.136 71.046C28.136 71.046 27.5425 69.5888 26.1578 69.2026C25.1357 68.9076 23.6851 69.2026 21.7069 71.046C17.0583 75.4176 15.9703 75.6361 15.9703 75.6361L13.6328 82.4011L13.1514 83.7928C11.3921 88.8641 9.79949 94.2075 8.38573 99.7818C7.60765 102.871 6.50648 106.474 5.18606 108.638C2.51391 113.013 0.929733 126.128 0.929733 126.128Z" fill="#069801"/>
<path opacity="0.1" d="M18.2683 100.849C18.2683 100.849 11.6645 104.456 9.10446 113.556L18.2683 100.849Z" fill="black"/>
<path opacity="0.1" d="M16.2275 116.835C16.2275 116.835 14.9796 135.363 15.3258 136.758C15.6719 138.153 16.2275 116.835 16.2275 116.835Z" fill="black"/>
<path opacity="0.1" d="M16.6742 126.346C17.1555 127.738 19.1057 138.481 19.1057 138.481L18.5419 156.517L18.0474 167.009C18.0474 167.009 20.5201 165.042 21.313 165.261C21.6657 165.359 22.0581 164.638 22.3812 163.803C21.8669 157.658 20.769 144.802 20.5679 144.554C20.3058 144.226 18.9705 133.895 18.8996 131.024C18.8287 128.153 16.9693 121.683 16.9693 121.683C16.9693 121.683 16.1912 124.955 16.6742 126.346Z" fill="black"/>
<path opacity="0.1" d="M18.5419 108.638C18.6622 109.458 18.8535 114.212 18.8535 114.212C18.9886 118.405 20.4228 119.774 21.313 120.212C21.334 119.918 21.3659 119.63 21.4086 119.348C22.002 115.636 29.7185 79.7782 29.7185 79.7782C29.7105 77.9583 29.607 76.1466 29.4102 74.3793C27.7304 73.2864 25.0698 74.9695 25.0698 74.9695C24.3016 74.7472 21.7943 85.7672 21.7943 85.7672C21.7943 85.7672 20.1228 94.208 19.9398 95.3556C19.7568 96.5031 19.9398 98.3938 19.8656 99.0495C19.7914 99.7053 19.0101 100.274 18.8996 101.181C18.7892 102.088 18.8617 103.88 18.7875 104.208C18.7133 104.536 18.4133 107.818 18.5419 108.638Z" fill="black"/>
<path d="M19.1353 107.982C19.2573 108.802 19.4469 113.556 19.4469 113.556C19.559 117.046 20.5745 118.58 21.4251 119.25C21.807 119.551 22.2069 119.728 22.612 119.774L23.8054 122.062L29.313 131.042C29.313 131.042 31.3669 122.663 30.8098 122.609C30.2526 122.554 27.0397 116.598 27.0397 116.598C26.0506 115.439 25.0715 111.563 24.6148 109.574C24.6418 109.334 24.6616 109.091 24.6742 108.846C24.8736 105.133 29.0278 90.9221 29.0278 90.9221C29.0278 90.9221 30.6334 86.7436 31.2598 79.0022C31.2779 78.8274 31.2895 78.6379 31.3043 78.4594C31.3221 78.2183 31.3331 77.975 31.3373 77.7308C31.4114 74.7545 30.4323 73.6726 29.2684 73.4139C28.6638 73.31 28.0558 73.3516 27.4551 73.5378C26.8543 73.7037 26.2594 73.9618 25.6748 74.3101C25.1803 74.168 23.9505 78.7399 23.1461 81.9786C22.7125 83.7345 22.401 85.1079 22.401 85.1079C22.401 85.1079 20.7212 93.5523 20.5332 94.6998C20.3453 95.8474 20.5332 97.7344 20.4591 98.3938C20.3849 99.0532 19.6035 99.6178 19.4947 100.525C19.3859 101.432 19.4551 103.224 19.381 103.552C19.3068 103.88 19.0101 107.162 19.1353 107.982Z" fill="#069801"/>
<path opacity="0.1" d="M12.7443 89.0824C13.7894 91.4576 15.4939 91.4649 16.8555 90.259C18.2172 89.0532 19.3727 86.8529 20.6371 85.1589C21.4613 84.066 22.3251 83.1443 23.1329 82.0041C23.2516 81.8328 23.367 81.6616 23.4791 81.4868C24.4121 80.0296 25.2182 78.1607 26.1825 76.8238C26.8289 75.8788 27.5807 75.3468 28.3552 75.2864C28.7125 75.2785 29.0664 75.4426 29.3921 75.7673C29.449 75.8219 29.504 75.8852 29.5569 75.9567C29.8739 76.3621 30.1673 76.8515 30.4306 77.4139C30.7026 77.9567 30.9647 78.5359 31.2549 79.0387C31.273 78.8638 31.2845 78.6744 31.2994 78.4959C31.3171 78.2547 31.3281 78.0114 31.3323 77.7673C31.5499 77.8146 31.7692 77.8401 31.9917 77.8401C32.7017 77.8319 33.4058 77.5559 34.0737 77.0241C34.0737 76.9658 34.0836 76.9039 34.0886 76.8456C34.3259 74.0915 34.7479 71.1735 35.7568 69.6252C36.3387 68.7254 37.2684 68.3611 38.0729 67.6762C38.352 65.5284 38.3941 63.264 38.1958 61.0727C37.9976 58.8815 37.5646 56.8271 36.9333 55.0815C36.3019 53.336 35.4905 51.95 34.567 51.0398C33.6435 50.1296 32.6348 49.7215 31.6253 49.8498C30.6158 49.978 29.6348 50.6389 28.7646 51.777C27.8944 52.9151 27.1603 54.4974 26.6236 56.3913C26.0869 58.2853 25.7634 60.4358 25.68 62.6629C25.5967 64.8899 25.756 67.1287 26.1446 69.1917C25.1226 68.8966 23.6719 69.1917 21.6938 71.0351C17.0451 75.4066 15.9571 75.6252 15.9571 75.6252L13.6328 82.4011C13.885 83.2536 14.1702 84.0951 14.1966 85.0897C14.2493 86.933 13.4449 88.2044 12.7443 89.0824Z" fill="black"/>
<path d="M35.7651 68.3174C34.7611 69.8693 34.3342 72.7837 34.0968 75.5341C34.0226 76.3938 33.9517 77.301 33.7144 77.9822C33.1819 79.5086 32.1104 79.0751 31.4148 77.9822C30.7191 76.8893 30.1718 75.2281 29.3954 74.4521C28.3635 73.4248 27.1518 74.1753 26.1875 75.5123C25.2231 76.8492 24.4154 78.7181 23.4824 80.1716C22.5806 81.5778 21.5751 82.5796 20.6355 83.8437C19.3727 85.545 18.2188 87.7417 16.8555 88.9439C15.4923 90.1461 13.7894 90.1461 12.7459 87.7709C13.4465 86.9111 14.251 85.6397 14.1966 83.8C14.1422 81.9603 13.1712 80.5796 13.2372 78.6999C13.3031 76.8201 14.307 76.0696 15.0274 75.1443C16.5357 73.2062 17.1704 68.9513 17.5001 65.0168C17.7506 61.9458 17.9567 58.5105 18.9969 56.5396C19.6662 55.2682 20.5745 54.8529 21.2487 53.5961C21.8883 52.4012 22.2378 50.5907 22.6466 48.9258C23.3175 46.1462 24.1978 43.567 25.3633 41.9058C26.5287 40.2446 28.0107 39.6034 29.2899 40.7218C29.7844 41.1481 30.2262 41.8147 30.7109 42.2774C31.9142 43.4286 33.294 43.2756 34.4875 44.485C35.9563 45.9786 36.9107 49.2792 37.7844 52.4121C38.5312 55.0897 39.9917 59.8292 39.5829 63.2901C39.1658 66.8201 36.8547 66.6307 35.7651 68.3174Z" fill="#7C5C5C"/>
<g opacity="0.1">
<path opacity="0.1" d="M13.2372 78.4704C13.2425 78.3262 13.2541 78.1834 13.2718 78.0441C13.5372 78.9695 13.8685 79.8656 13.8998 80.9585C13.9074 81.2092 13.898 81.4609 13.8718 81.7053C13.5767 80.6562 13.196 79.6762 13.2372 78.4704Z" fill="black"/>
<path opacity="0.1" d="M16.5588 86.0988C17.9221 84.8893 19.076 82.6926 20.3387 80.9986C21.2784 79.7345 22.2839 78.7327 23.1856 77.3265C24.1187 75.8693 24.9264 74.0005 25.8908 72.6671C26.8551 71.3338 28.0667 70.5797 29.0987 71.607C29.8751 72.383 30.4174 74.026 31.118 75.1371C31.8186 76.2482 32.8852 76.6817 33.4176 75.1553C33.6567 74.474 33.7259 73.5706 33.8001 72.7108C34.0375 69.9567 34.4595 67.0424 35.4683 65.4905C36.5596 63.8074 38.8691 63.9968 39.2878 60.4449C39.3576 59.8148 39.376 59.1622 39.3422 58.5178C39.6109 60.0952 39.7477 61.6835 39.5862 63.0679C39.1658 66.6198 36.8563 66.4303 35.7651 68.1134C34.7628 69.6653 34.3342 72.5797 34.0968 75.3338C34.0226 76.1935 33.9534 77.1006 33.716 77.7782C33.1819 79.3046 32.1104 78.8711 31.4082 77.76C30.7059 76.6489 30.1652 75.0059 29.3888 74.23C28.3569 73.2026 27.1452 73.9567 26.1809 75.2901C25.2165 76.6234 24.4088 78.4959 23.4758 79.9494C22.5741 81.3593 21.5685 82.3574 20.6289 83.6216C19.3661 85.3265 18.2122 87.5195 16.8489 88.7217C15.4857 89.9239 13.7828 89.9203 12.7393 87.545C13.0089 87.2223 13.2649 86.8468 13.5042 86.423C14.457 87.1917 15.5945 86.9512 16.5588 86.0988Z" fill="black"/>
</g>
<path d="M123.842 54.6211L117.083 39.6011C116.752 38.8524 116.357 38.2561 115.92 37.8467C115.484 37.4372 115.016 37.2228 114.542 37.2157C114.068 37.2086 113.598 37.4089 113.159 37.8052C112.721 38.2015 112.322 38.7859 111.986 39.5246L69.5447 132.522L51.5995 92.5554C50.9332 91.0618 50.0257 90.2143 49.0766 90.1992C48.1276 90.1842 47.2147 91.0029 46.5387 92.4752L39.7075 107.411C39.0324 108.901 38.6502 110.919 38.6437 113.028C38.6372 115.136 39.007 117.165 39.6729 118.676L66.9253 179.375C67.5993 180.867 68.5122 181.712 69.4663 181.727C70.4204 181.742 71.3388 180.926 72.0223 179.455L123.804 65.8815C124.143 65.1498 124.412 64.2772 124.598 63.3138C124.783 62.3505 124.881 61.3156 124.884 60.2688C124.888 59.222 124.797 58.1839 124.618 57.2146C124.439 56.2453 124.176 55.3639 123.842 54.6211Z" fill="#3ACC6C"/>
<defs>
<linearGradient id="paint0_linear" x1="8971.49" y1="101061" x2="8971.49" y2="44520.9" gradientUnits="userSpaceOnUse">
<stop stop-color="#808080" stop-opacity="0.25"/>
<stop offset="0.54" stop-color="#808080" stop-opacity="0.12"/>
<stop offset="1" stop-color="#808080" stop-opacity="0.1"/>
</linearGradient>
</defs>
</svg>
