<svg width="102" height="102" viewBox="0 0 102 102" fill="none" xmlns="http://www.w3.org/2000/svg">
<path d="M54.5302 4.28718C55.2394 2.73327 56.5622 2.29499 57.6619 2.24718C59.3353 2.16749 61.0884 3.32296 62.738 4.68562C63.9094 6.00843 65.3119 7.02843 66.9375 7.74562C68.0611 8.14405 69.1767 8.22374 70.3083 8.16796C71.902 8.08827 73.5197 7.73765 75.1214 7.65796L75.2091 7.64999L75.9342 7.58624C77.767 7.49858 79.4962 7.9289 81.1378 8.87718C82.6439 10.2478 83.3053 11.9531 83.0981 14.0091C82.7475 15.7064 83.0503 17.2603 83.9986 18.6708C85.6322 19.8183 87.3455 20.8223 89.1464 21.675C91.0111 22.695 92.1825 24.233 92.6925 26.2809C92.8758 28.4484 91.8717 29.835 89.7042 30.4326C86.8833 31.1419 83.0902 31.1419 79.8947 33.6122C75.225 37.5089 73.7587 41.4375 71.7267 42.0351C70.7306 40.9036 64.515 36.0984 54.0919 33.7955C52.2272 27.3647 51.0956 11.8416 54.5302 4.28718Z" fill="#069801"/>
<path d="M65.0489 32.4248C66.8817 28.7592 72.1012 22.3125 73.3523 23.5875C74.5875 24.974 71.7426 32.1778 69.7425 35.7079C69.0333 34.9589 66.7462 33.389 65.7501 33.1261" fill="#D19B15"/>
<path d="M74.2687 44.1628C73.193 44.1628 72.1411 43.613 71.5434 42.6249C66.0609 33.6042 53.6456 34.5525 53.5261 34.5685C51.773 34.7119 50.227 33.421 50.0756 31.6758C50.0016 30.8364 50.2624 30.0017 50.8013 29.3538C51.3402 28.7059 52.1134 28.2974 52.9523 28.2174C53.6217 28.1536 69.4237 26.8547 76.9941 39.3258C77.9105 40.8319 77.4244 42.7922 75.9262 43.7007C75.4003 44.0114 74.8345 44.1628 74.2687 44.1628Z" fill="#2B2B2B"/>
<path d="M76.5478 97.2746C62.8973 100.637 43.9237 100.398 30.3689 97.7208C17.6827 95.2107 7.96875 87.728 9.08437 73.0017C10.2159 58.1002 20.0892 44.0672 33.668 37.8835C46.8084 31.8989 64.4433 28.9824 73.7348 42.5611C76.0458 45.9399 80.4605 53.4385 80.6677 57.12C80.6836 57.4149 80.6995 57.6778 80.7633 57.9328C80.7792 58.8572 81.1537 59.7896 82.0622 60.4749C87.9033 64.8975 92.1586 70.7625 92.9395 78.803C93.8639 88.3894 84.7955 95.2425 76.5478 97.2746Z" fill="#069801"/>
<path d="M63.6407 86.0126H59.1172L41.9375 59.7157V86.0126H37.4141V51.8876H41.9375L59.1641 78.3016V51.8876H63.6407V86.0126Z" fill="white"/>
<line x1="30.6" y1="62.4091" x2="68.6182" y2="62.4091" stroke="white" stroke-width="5"/>
<line x1="30.6" y1="73.5364" x2="68.6182" y2="73.5364" stroke="white" stroke-width="5"/>
</svg>
