<svg width="1120" height="699" viewBox="0 0 1120 699" fill="none" xmlns="http://www.w3.org/2000/svg">
<g clip-path="url(#clip0)">
<path d="M85.8329 192.339C85.8329 192.339 101.248 191.864 105.894 188.556C110.54 185.248 129.607 181.298 130.76 186.603C131.912 191.909 153.927 212.991 136.522 213.132C119.118 213.272 96.0831 210.421 91.4462 207.596C86.8093 204.772 85.8329 192.339 85.8329 192.339Z" fill="#A8A8A8"/>
<path opacity="0.2" d="M136.833 211.285C119.429 211.425 96.3938 208.574 91.7568 205.749C88.2256 203.598 86.8184 195.88 86.3476 192.319C86.0215 192.333 85.8329 192.339 85.8329 192.339C85.8329 192.339 86.8093 204.772 91.4463 207.596C96.0832 210.421 119.118 213.272 136.523 213.132C141.546 213.091 143.282 211.304 143.186 208.656C142.488 210.256 140.572 211.255 136.833 211.285Z" fill="black"/>
<path d="M198.609 449.94C301.886 449.94 385.609 438.55 385.609 424.5C385.609 410.45 301.886 399.06 198.609 399.06C95.3319 399.06 11.6091 410.45 11.6091 424.5C11.6091 438.55 95.3319 449.94 198.609 449.94Z" fill="#3F3D56"/>
<path opacity="0.1" d="M198.609 445.859C285.318 445.859 355.609 436.296 355.609 424.5C355.609 412.704 285.318 403.141 198.609 403.141C111.9 403.141 41.6091 412.704 41.6091 424.5C41.6091 436.296 111.9 445.859 198.609 445.859Z" fill="black"/>
<path d="M836.609 699C992.906 699 1119.61 681.763 1119.61 660.5C1119.61 639.237 992.906 622 836.609 622C680.313 622 553.609 639.237 553.609 660.5C553.609 681.763 680.313 699 836.609 699Z" fill="#3F3D56"/>
<path d="M310.609 668.627C404.498 668.627 480.609 658.273 480.609 645.5C480.609 632.727 404.498 622.373 310.609 622.373C216.721 622.373 140.609 632.727 140.609 645.5C140.609 658.273 216.721 668.627 310.609 668.627Z" fill="#3F3D56"/>
<path d="M462.609 626C552.609 649 725.609 596 744.609 536" stroke="#2F2E41" stroke-width="2" stroke-miterlimit="10"/>
<path d="M309.609 259C309.609 259 439.609 223 447.609 339C455.609 455 340.609 488 430.609 511" stroke="#2F2E41" stroke-width="2" stroke-miterlimit="10"/>
<path d="M184.011 537.283C184.011 537.283 223.084 526.463 225.488 561.328C227.893 596.192 193.329 606.111 220.379 613.024" stroke="#2F2E41" stroke-width="2" stroke-miterlimit="10"/>
<path d="M778.705 563.24L770.827 613.535C770.827 613.535 732.045 634.138 759.314 634.744C786.582 635.35 915.047 634.744 915.047 634.744C915.047 634.744 939.892 634.744 900.504 612.929L892.626 560.21L778.705 563.24Z" fill="#2F2E41"/>
<path opacity="0.1" d="M753.828 634.198C760.021 628.688 770.827 622.946 770.827 622.946L778.705 572.651L892.626 572.758L900.504 622.34C909.689 627.427 915.379 631.327 918.707 634.318C923.766 633.164 929.295 628.875 900.504 612.929L892.626 560.21L778.705 563.24L770.827 613.535C770.827 613.535 738.239 630.85 753.828 634.198Z" fill="black"/>
<path d="M1073.64 212.689H596.479C586.512 212.689 578.433 220.768 578.433 230.734V552.163C578.433 562.129 586.512 570.208 596.479 570.208H1073.64C1083.61 570.208 1091.69 562.129 1091.69 552.163V230.734C1091.69 220.768 1083.61 212.689 1073.64 212.689Z" fill="#2F2E41"/>
<path d="M1074.42 231.777H595.703V499.613H1074.42V231.777Z" fill="#F5FFFE"/>
<path d="M835.06 226.323C836.733 226.323 838.089 224.966 838.089 223.293C838.089 221.62 836.733 220.263 835.06 220.263C833.386 220.263 832.03 221.62 832.03 223.293C832.03 224.966 833.386 226.323 835.06 226.323Z" fill="#F2F2F2"/>
<path d="M1091.69 520.822V552.163C1091.69 554.533 1091.22 556.879 1090.31 559.069C1089.41 561.258 1088.08 563.248 1086.4 564.924C1084.73 566.599 1082.74 567.929 1080.55 568.835C1078.36 569.742 1076.01 570.209 1073.64 570.208H596.479C594.109 570.209 591.762 569.742 589.572 568.835C587.383 567.929 585.393 566.599 583.718 564.924C582.042 563.248 580.713 561.258 579.806 559.069C578.899 556.879 578.433 554.533 578.433 552.163V520.822H1091.69Z" fill="#2F2E41"/>
<path d="M968.978 667.466V673.526H642.968V668.678L643.417 667.466L651.452 645.651H962.312L968.978 667.466Z" fill="#2F2E41"/>
<path d="M1094.44 661.534C1093.84 664.073 1091.6 666.751 1086.54 669.284C1068.36 678.373 1031.39 666.86 1031.39 666.86C1031.39 666.86 1002.91 662.012 1002.91 649.287C1003.71 648.739 1004.55 648.244 1005.41 647.803C1013.05 643.759 1038.39 633.781 1083.33 648.225C1086.64 649.264 1089.59 651.202 1091.87 653.822C1093.69 655.954 1095.12 658.657 1094.44 661.534Z" fill="#2F2E41"/>
<path opacity="0.1" d="M1094.44 661.534C1072.19 670.06 1052.35 670.696 1032 656.559C1021.73 649.432 1012.41 647.669 1005.41 647.802C1013.05 643.759 1038.39 633.781 1083.33 648.225C1086.64 649.264 1089.59 651.202 1091.87 653.822C1093.69 655.953 1095.12 658.657 1094.44 661.534Z" fill="black"/>
<path d="M1066.54 656.559C1070.89 656.559 1074.42 655.473 1074.42 654.135C1074.42 652.796 1070.89 651.711 1066.54 651.711C1062.19 651.711 1058.66 652.796 1058.66 654.135C1058.66 655.473 1062.19 656.559 1066.54 656.559Z" fill="#F2F2F2"/>
<path d="M835.06 557.18C841.418 557.18 846.573 552.026 846.573 545.667C846.573 539.308 841.418 534.154 835.06 534.154C828.701 534.154 823.546 539.308 823.546 545.667C823.546 552.026 828.701 557.18 835.06 557.18Z" fill="#F2F2F2"/>
<path opacity="0.1" d="M968.978 667.466V673.526H642.968V668.678L643.417 667.466H968.978Z" fill="black"/>
<path d="M316.609 159H108.609V401H316.609V159Z" fill="#2F2E41"/>
<path d="M337.609 135H87.6091V221H337.609V135Z" fill="#3F3D56"/>
<path d="M337.609 237H87.6091V323H337.609V237Z" fill="#3F3D56"/>
<path d="M337.609 339H87.6091V425H337.609V339Z" fill="#3F3D56"/>
<path opacity="0.4" d="M287.609 150H271.609V166H287.609V150Z" fill="#069801"/>
<path opacity="0.8" d="M310.609 150H294.609V166H310.609V150Z" fill="#63FF85"/>
<path d="M333.609 150H317.609V166H333.609V150Z" fill="#63FFB4"/>
<path opacity="0.4" d="M287.609 251H271.609V267H287.609V251Z" fill="#069801"/>
<path opacity="0.8" d="M310.609 251H294.609V267H310.609V251Z" fill="#63FF85"/>
<path d="M333.609 251H317.609V267H333.609V251Z" fill="#63FFB4"/>
<path opacity="0.4" d="M287.609 352H271.609V368H287.609V352Z" fill="#069801"/>
<path opacity="0.8" d="M310.609 352H294.609V368H310.609V352Z" fill="#63FF85"/>
<path d="M333.609 352H317.609V368H333.609V352Z" fill="#63FFB4"/>
<path d="M316.609 617C360.24 617 395.609 581.63 395.609 538C395.609 494.37 360.24 459 316.609 459C272.979 459 237.609 494.37 237.609 538C237.609 581.63 272.979 617 316.609 617Z" fill="#2F2E41"/>
<path d="M304.609 600H280.609V643H304.609V600Z" fill="#2F2E41"/>
<path d="M352.609 600H328.609V643H352.609V600Z" fill="#2F2E41"/>
<path d="M300.609 651C311.655 651 320.609 647.642 320.609 643.5C320.609 639.358 311.655 636 300.609 636C289.563 636 280.609 639.358 280.609 643.5C280.609 647.642 289.563 651 300.609 651Z" fill="#2F2E41"/>
<path d="M348.609 650C359.655 650 368.609 646.642 368.609 642.5C368.609 638.358 359.655 635 348.609 635C337.563 635 328.609 638.358 328.609 642.5C328.609 646.642 337.563 650 348.609 650Z" fill="#2F2E41"/>
<path d="M318.609 545C333.521 545 345.609 532.912 345.609 518C345.609 503.088 333.521 491 318.609 491C303.697 491 291.609 503.088 291.609 518C291.609 532.912 303.697 545 318.609 545Z" fill="white"/>
<path d="M318.609 527C323.58 527 327.609 522.971 327.609 518C327.609 513.029 323.58 509 318.609 509C313.639 509 309.609 513.029 309.609 518C309.609 522.971 313.639 527 318.609 527Z" fill="#3F3D56"/>
<path d="M390.703 522.244C410.759 513.66 424.833 501.597 422.138 495.301C419.443 489.005 401 490.86 380.945 499.444C360.889 508.028 346.816 520.09 349.511 526.386C352.205 532.682 370.648 530.827 390.703 522.244Z" fill="#2F2E41"/>
<path d="M242.703 575.244C262.759 566.66 276.833 554.597 274.138 548.301C271.443 542.005 253 543.86 232.945 552.444C212.889 561.027 198.816 573.09 201.51 579.386C204.205 585.682 222.648 583.827 242.703 575.244Z" fill="#2F2E41"/>
<path d="M362.609 561C362.609 568.732 342.701 584 320.609 584C298.518 584 277.609 569.732 277.609 562C277.609 554.268 298.518 556 320.609 556C342.701 556 362.609 553.268 362.609 561Z" fill="white"/>
<path d="M649.862 383.312C651.526 383.312 653.318 383.483 655.238 383.824C657.201 384.123 658.353 384.293 658.694 384.336L658.566 389.136C654.811 388.453 651.91 388.112 649.862 388.112C646.961 388.112 644.87 388.709 643.59 389.904C642.31 391.099 641.67 393.083 641.67 395.856V414.16C641.67 416.933 642.289 418.917 643.526 420.112C644.806 421.264 646.918 421.84 649.862 421.84C651.91 421.84 654.811 421.499 658.566 420.816L658.694 425.744C658.353 425.787 657.201 425.957 655.238 426.256C653.318 426.597 651.526 426.768 649.862 426.768C644.955 426.768 641.457 425.723 639.366 423.632C637.275 421.541 636.23 418.277 636.23 413.84V396.24C636.23 391.803 637.275 388.539 639.366 386.448C641.457 384.357 644.955 383.312 649.862 383.312ZM676.667 394C680.464 394 683.28 395.024 685.115 397.072C686.992 399.077 687.931 401.936 687.931 405.648V415.12C687.931 418.832 686.992 421.712 685.115 423.76C683.28 425.765 680.464 426.768 676.667 426.768C672.869 426.768 670.032 425.765 668.155 423.76C666.32 421.712 665.403 418.832 665.403 415.12V405.648C665.403 401.936 666.32 399.077 668.155 397.072C670.032 395.024 672.869 394 676.667 394ZM676.667 398.544C674.832 398.544 673.403 399.12 672.379 400.272C671.355 401.424 670.843 403.067 670.843 405.2V415.568C670.843 417.701 671.355 419.344 672.379 420.496C673.403 421.648 674.832 422.224 676.667 422.224C678.501 422.224 679.931 421.648 680.955 420.496C681.979 419.344 682.491 417.701 682.491 415.568V405.136C682.491 403.003 681.979 401.381 680.955 400.272C679.931 399.12 678.501 398.544 676.667 398.544ZM709.862 394C712.593 394 714.683 394.939 716.134 396.816C717.627 398.651 718.374 401.275 718.374 404.688V426H712.934V405.456C712.934 401.189 711.547 399.056 708.774 399.056C707.537 399.056 706.278 399.525 704.998 400.464C703.718 401.403 702.609 402.683 701.67 404.304V426H696.23V394.768H701.35V399.44C702.502 397.691 703.782 396.347 705.19 395.408C706.641 394.469 708.198 394 709.862 394ZM740.987 394C743.718 394 745.808 394.939 747.259 396.816C748.752 398.651 749.499 401.275 749.499 404.688V426H744.059V405.456C744.059 401.189 742.672 399.056 739.899 399.056C738.662 399.056 737.403 399.525 736.123 400.464C734.843 401.403 733.734 402.683 732.795 404.304V426H727.355V394.768H732.475V399.44C733.627 397.691 734.907 396.347 736.315 395.408C737.766 394.469 739.323 394 740.987 394ZM768.72 394C772.304 394 775.035 394.981 776.912 396.944C778.789 398.907 779.728 401.744 779.728 405.456V412.048H763.28V415.824C763.28 418 763.792 419.579 764.816 420.56C765.883 421.499 767.547 421.968 769.808 421.968C772.027 421.968 774.8 421.627 778.128 420.944L778.256 425.68C774.288 426.405 771.451 426.768 769.744 426.768C765.52 426.768 762.469 425.851 760.592 424.016C758.757 422.181 757.84 419.344 757.84 415.504V405.456C757.84 401.744 758.736 398.907 760.528 396.944C762.363 394.981 765.093 394 768.72 394ZM768.72 398.544C767.056 398.544 765.733 399.077 764.752 400.144C763.771 401.168 763.28 402.661 763.28 404.624V407.696H774.288V404.816C774.288 402.768 773.776 401.211 772.752 400.144C771.771 399.077 770.427 398.544 768.72 398.544ZM798.049 394C799.969 394 802.145 394.277 804.577 394.832L804.449 399.632C801.974 399.077 799.841 398.8 798.049 398.8C796.044 398.8 794.508 399.355 793.441 400.464C792.417 401.573 791.905 403.152 791.905 405.2V415.504C791.905 417.637 792.438 419.259 793.505 420.368C794.614 421.435 796.129 421.968 798.049 421.968C799.244 421.968 800.289 421.904 801.185 421.776C802.081 421.648 803.169 421.435 804.449 421.136L804.577 425.936C801.974 426.491 799.777 426.768 797.985 426.768C790.305 426.768 786.465 422.885 786.465 415.12V405.648C786.465 397.883 790.326 394 798.049 394ZM819.068 394.768H827.388V399.248H819.068V417.552C819.068 419.173 819.388 420.347 820.028 421.072C820.71 421.755 821.756 422.096 823.164 422.096C824.956 422.096 826.705 421.883 828.412 421.456L828.54 426C826.662 426.512 824.956 426.768 823.42 426.768C820.006 426.768 817.51 426.021 815.932 424.528C814.396 422.992 813.628 420.517 813.628 417.104V399.248H809.148V394.768H813.628L814.652 386.448H819.068V394.768ZM839.733 394.768V426H834.293V394.768H839.733ZM836.981 382.16C838.133 382.16 839.007 382.416 839.605 382.928C840.245 383.44 840.565 384.165 840.565 385.104V386.96C840.565 387.899 840.245 388.624 839.605 389.136C839.007 389.605 838.133 389.84 836.981 389.84C835.871 389.84 834.997 389.605 834.357 389.136C833.759 388.624 833.461 387.899 833.461 386.96V385.104C833.461 384.165 833.759 383.44 834.357 382.928C834.997 382.416 835.871 382.16 836.981 382.16ZM859.292 394C863.089 394 865.905 395.024 867.74 397.072C869.617 399.077 870.556 401.936 870.556 405.648V415.12C870.556 418.832 869.617 421.712 867.74 423.76C865.905 425.765 863.089 426.768 859.292 426.768C855.494 426.768 852.657 425.765 850.78 423.76C848.945 421.712 848.028 418.832 848.028 415.12V405.648C848.028 401.936 848.945 399.077 850.78 397.072C852.657 395.024 855.494 394 859.292 394ZM859.292 398.544C857.457 398.544 856.028 399.12 855.004 400.272C853.98 401.424 853.468 403.067 853.468 405.2V415.568C853.468 417.701 853.98 419.344 855.004 420.496C856.028 421.648 857.457 422.224 859.292 422.224C861.126 422.224 862.556 421.648 863.58 420.496C864.604 419.344 865.116 417.701 865.116 415.568V405.136C865.116 403.003 864.604 401.381 863.58 400.272C862.556 399.12 861.126 398.544 859.292 398.544ZM892.487 394C895.218 394 897.308 394.939 898.759 396.816C900.252 398.651 900.999 401.275 900.999 404.688V426H895.559V405.456C895.559 401.189 894.172 399.056 891.399 399.056C890.162 399.056 888.903 399.525 887.623 400.464C886.343 401.403 885.234 402.683 884.295 404.304V426H878.855V394.768H883.975V399.44C885.127 397.691 886.407 396.347 887.815 395.408C889.266 394.469 890.823 394 892.487 394ZM943.88 384.08V389.008H927.24V402.256H942.6V407.12H927.24V421.072H943.88V426H921.8V384.08H943.88ZM966.175 394C966.772 394 967.241 394.043 967.583 394.128V400.272C966.943 400.144 966.111 400.08 965.087 400.08C962.1 400.08 959.732 401.573 957.983 404.56V426H952.543V394.768H957.663V399.44C958.815 397.691 960.095 396.347 961.503 395.408C962.953 394.469 964.511 394 966.175 394ZM986.987 394C987.584 394 988.054 394.043 988.395 394.128V400.272C987.755 400.144 986.923 400.08 985.899 400.08C982.912 400.08 980.544 401.573 978.795 404.56V426H973.355V394.768H978.475V399.44C979.627 397.691 980.907 396.347 982.315 395.408C983.766 394.469 985.323 394 986.987 394ZM1004.35 394C1008.15 394 1010.97 395.024 1012.8 397.072C1014.68 399.077 1015.62 401.936 1015.62 405.648V415.12C1015.62 418.832 1014.68 421.712 1012.8 423.76C1010.97 425.765 1008.15 426.768 1004.35 426.768C1000.56 426.768 997.719 425.765 995.842 423.76C994.007 421.712 993.09 418.832 993.09 415.12V405.648C993.09 401.936 994.007 399.077 995.842 397.072C997.719 395.024 1000.56 394 1004.35 394ZM1004.35 398.544C1002.52 398.544 1001.09 399.12 1000.07 400.272C999.042 401.424 998.53 403.067 998.53 405.2V415.568C998.53 417.701 999.042 419.344 1000.07 420.496C1001.09 421.648 1002.52 422.224 1004.35 422.224C1006.19 422.224 1007.62 421.648 1008.64 420.496C1009.67 419.344 1010.18 417.701 1010.18 415.568V405.136C1010.18 403.003 1009.67 401.381 1008.64 400.272C1007.62 399.12 1006.19 398.544 1004.35 398.544ZM1037.55 394C1038.15 394 1038.62 394.043 1038.96 394.128V400.272C1038.32 400.144 1037.49 400.08 1036.46 400.08C1033.47 400.08 1031.11 401.573 1029.36 404.56V426H1023.92V394.768H1029.04V399.44C1030.19 397.691 1031.47 396.347 1032.88 395.408C1034.33 394.469 1035.89 394 1037.55 394Z" fill="#069801"/>
<path d="M834.5 251L884.296 341H784.704L834.5 251Z" fill="#F40A0A"/>
<rect x="831" y="277" width="8" height="39" rx="4" fill="white"/>
<rect x="831" y="321" width="9" height="9" rx="4.5" fill="white"/>
</g>
<defs>
<clipPath id="clip0">
<rect width="1119.61" height="699" fill="white"/>
</clipPath>
</defs>
</svg>
